JosefinSlab-SemiBold-TTF.ufo
<glyph name="quotedbl" format="1">
  <advance width="322"/>
  <unicode hex="0022"/>
  <outline>
    <contour>
      <point x="196" y="472" type="line" name="dv01"/>
      <point x="196" y="720" type="line" name="dh02"/>
      <point x="259" y="720" type="line" name="sh01"/>
      <point x="258" y="657"/>
      <point x="256" y="535"/>
      <point x="255" y="472" type="qcurve"/>
    </contour>
    <contour>
      <point x="63" y="472" type="line" name="sv01"/>
      <point x="63" y="720" type="line" name="sh02"/>
      <point x="126" y="720" type="line" name="dh01"/>
      <point x="125" y="657"/>
      <point x="123" y="535"/>
      <point x="122" y="472" type="qcurve"/>
    </contour>
  </outline>
</glyph>
<glyph name="percent" format="1">
  <advance width="726"/>
  <unicode hex="0025"/>
  <outline>
    <contour>
      <point x="462" y="111" type="qcurve" name="sh01"/>
      <point x="462" y="85"/>
      <point x="496" y="51"/>
      <point x="522" y="51" type="qcurve" name="sv01"/>
      <point x="548" y="51"/>
      <point x="582" y="85"/>
      <point x="582" y="111" type="qcurve" name="sh03"/>
      <point x="582" y="137"/>
      <point x="548" y="171"/>
      <point x="522" y="171" type="qcurve" name="sv03"/>
      <point x="496" y="171"/>
      <point x="462" y="137"/>
    </contour>
    <contour>
      <point x="522" y="-10" type="qcurve" name="ab01"/>
      <point x="497" y="-10"/>
      <point x="452" y="9"/>
      <point x="435.5" y="25.5" type="qcurve" smooth="yes" name="inserted"/>
      <point x="419" y="42" name="fh01"/>
      <point x="399" y="86"/>
      <point x="399" y="112" type="qcurve" name="ah02"/>
      <point x="399" y="137"/>
      <point x="419" y="181" name="fh02"/>
      <point x="435.5" y="197.0" type="qcurve" smooth="yes" name="inserted"/>
      <point x="452" y="213"/>
      <point x="497" y="232"/>
      <point x="522" y="233" type="qcurve" name="sv02"/>
      <point x="547" y="232"/>
      <point x="591" y="213"/>
      <point x="608.0" y="197.0" type="qcurve" smooth="yes" name="inserted"/>
      <point x="625" y="181" name="fh03"/>
      <point x="645" y="137"/>
      <point x="645" y="112" type="qcurve" name="sh02"/>
      <point x="645" y="86"/>
      <point x="625" y="42" name="fh04"/>
      <point x="608.0" y="25.5" type="qcurve" smooth="yes" name="inserted"/>
      <point x="591" y="9"/>
      <point x="547" y="-10"/>
    </contour>
    <contour>
      <point x="158" y="389" type="qcurve" name="sh04"/>
      <point x="158" y="363"/>
      <point x="192" y="328"/>
      <point x="218" y="328" type="qcurve" name="sv05"/>
      <point x="244" y="328"/>
      <point x="278" y="363"/>
      <point x="278" y="389" type="qcurve" name="sh06"/>
      <point x="278" y="414"/>
      <point x="244" y="449"/>
      <point x="218" y="449" type="qcurve" name="sv06"/>
      <point x="192" y="449"/>
      <point x="158" y="414"/>
    </contour>
    <contour>
      <point x="218" y="267" type="qcurve" name="sv04"/>
      <point x="193" y="267"/>
      <point x="148" y="286"/>
      <point x="131.5" y="302.5" type="qcurve" smooth="yes" name="inserted"/>
      <point x="115" y="319" name="fh05"/>
      <point x="95" y="363"/>
      <point x="95" y="389" type="qcurve" name="ah01"/>
      <point x="95" y="414"/>
      <point x="115" y="458"/>
      <point x="131.5" y="474.5" type="qcurve" smooth="yes" name="inserted"/>
      <point x="148" y="491" name="fh06"/>
      <point x="193" y="510"/>
      <point x="218" y="510" type="qcurve" name="av01"/>
      <point x="243" y="510"/>
      <point x="287" y="491" name="fh07"/>
      <point x="304.0" y="474.5" type="qcurve" smooth="yes" name="inserted"/>
      <point x="321" y="458" name="fh08"/>
      <point x="341" y="414"/>
      <point x="341" y="389" type="qcurve" name="sh05"/>
      <point x="341" y="363"/>
      <point x="321" y="319" name="fh09"/>
      <point x="304.0" y="302.5" type="qcurve" smooth="yes" name="inserted"/>
      <point x="287" y="286"/>
      <point x="243" y="267"/>
    </contour>
    <contour>
      <point x="184" y="0" type="line" name="ih01"/>
      <point x="259" y="126" name="fh10"/>
      <point x="407" y="374"/>
      <point x="482" y="500" type="qcurve" name="sh08"/>
      <point x="551" y="500" type="line" name="sh07"/>
      <point x="476" y="374"/>
      <point x="328" y="126"/>
      <point x="253" y="0" type="qcurve" name="sh09"/>
    </contour>
  </outline>
</glyph>
<glyph name="ampersand" format="1">
  <advance width="700"/>
  <unicode hex="0026"/>
  <outline>
    <contour>
      <point x="440" y="375" type="line" name="dh02"/>
      <point x="601" y="375" type="line"/>
      <point x="601" y="314" type="line" name="sh02"/>
      <point x="503" y="314" type="line" name="sh01"/>
      <point x="503" y="260" type="line"/>
      <point x="503" y="234"/>
      <point x="503" y="159"/>
      <point x="490" y="127" type="qcurve" name="sh03"/>
      <point x="561" y="13" type="line" name="sh04"/>
      <point x="512" y="-19" type="line" name="sh06"/>
      <point x="460" y="66" type="line" name="sh05"/>
      <point x="432" y="31"/>
      <point x="351" y="-8"/>
      <point x="303" y="-8" type="qcurve" name="ab01"/>
      <point x="262" y="-8"/>
      <point x="190" y="23"/>
      <point x="163.0" y="49.5" type="qcurve" smooth="yes" name="inserted"/>
      <point x="136" y="76"/>
      <point x="105" y="147"/>
      <point x="105" y="188" type="qcurve" name="dh01"/>
      <point x="105" y="224"/>
      <point x="130" y="288" name="fh01"/>
      <point x="151.5" y="313.5" type="qcurve" smooth="yes" name="inserted"/>
      <point x="173" y="339" name="fh02"/>
      <point x="232" y="374"/>
      <point x="267" y="380" type="qcurve" name="ih01"/>
      <point x="196" y="496" type="line" name="fh03"/>
      <point x="178" y="526"/>
      <point x="163" y="590" name="ih02"/>
      <point x="168.5" y="620.5" type="qcurve" smooth="yes" name="inserted"/>
      <point x="174" y="651"/>
      <point x="210" y="706"/>
      <point x="243" y="726" type="qcurve" name="fv01"/>
      <point x="271" y="743"/>
      <point x="330" y="750" name="at01"/>
      <point x="358.0" y="744.5" type="qcurve" smooth="yes" name="inserted"/>
      <point x="386" y="739"/>
      <point x="435" y="717"/>
      <point x="454" y="705" type="qcurve" name="ih03"/>
      <point x="429" y="656" type="line" name="sv01"/>
      <point x="415" y="664"/>
      <point x="379" y="681" name="fh04"/>
      <point x="360.0" y="685.5" type="qcurve" smooth="yes" name="inserted"/>
      <point x="341" y="690" name="sv02"/>
      <point x="302" y="687"/>
      <point x="285" y="676" type="qcurve" name="fh05"/>
      <point x="237" y="646" name="fv02"/>
      <point x="227" y="556" name="sh07"/>
      <point x="253" y="512" type="qcurve" name="fh06"/>
      <point x="432" y="220" type="line" name="sh08"/>
      <point x="436.0" y="227.0" name="inserted"/>
      <point x="440.0" y="241.5"/>
      <point x="440" y="249" type="qcurve"/>
    </contour>
    <contour>
      <point x="168" y="188" type="qcurve" name="sh09"/>
      <point x="168" y="159"/>
      <point x="188" y="110" name="fh07"/>
      <point x="206.0" y="91.5" type="qcurve" smooth="yes" name="inserted"/>
      <point x="224" y="73" name="fh08"/>
      <point x="274" y="52"/>
      <point x="303" y="52" type="qcurve" name="sv03"/>
      <point x="345" y="52" name="fh09"/>
      <point x="407" y="92" name="fh10"/>
      <point x="424" y="124" type="qcurve" name="sh10"/>
      <point x="303" y="322" type="line" name="ih04"/>
      <point x="243" y="320" name="fh11"/>
      <point x="168" y="247"/>
    </contour>
  </outline>
</glyph>
<glyph name="parenright" format="1">
  <advance width="400"/>
  <unicode hex="0029"/>
  <outline>
    <contour>
      <point x="302" y="291" type="qcurve" name="dh02"/>
      <point x="302" y="216"/>
      <point x="274" y="80"/>
      <point x="251.0" y="22.0" type="qcurve" smooth="yes" name="inserted"/>
      <point x="228" y="-36" name="fh01"/>
      <point x="168" y="-131"/>
      <point x="137" y="-164" type="qcurve" name="sh03"/>
      <point x="124" y="-159"/>
      <point x="98" y="-148"/>
      <point x="85" y="-142" type="qcurve" name="sh04"/>
      <point x="114" y="-109"/>
      <point x="169" y="-19" name="fh02"/>
      <point x="191.0" y="36.0" type="qcurve" smooth="yes" name="inserted"/>
      <point x="213" y="91"/>
      <point x="239" y="219"/>
      <point x="239" y="290" type="qcurve" name="dh01"/>
      <point x="239" y="361"/>
      <point x="213" y="489"/>
      <point x="191.0" y="544.0" type="qcurve" smooth="yes" name="inserted"/>
      <point x="169" y="599" name="fh03"/>
      <point x="114" y="689"/>
      <point x="85" y="722" type="qcurve" name="sh01"/>
      <point x="98" y="728"/>
      <point x="124" y="740"/>
      <point x="137" y="746" type="qcurve" name="sh02"/>
      <point x="168" y="713"/>
      <point x="228" y="618" name="fh04"/>
      <point x="251.0" y="560.0" type="qcurve" smooth="yes" name="inserted"/>
      <point x="274" y="502"/>
      <point x="302" y="366"/>
    </contour>
  </outline>
</glyph>
<glyph name="asterisk" format="1">
  <advance width="335"/>
  <unicode hex="002A"/>
  <outline>
    <contour>
      <point x="230" y="575" type="qcurve" name="sh02"/>
      <point x="249" y="564"/>
      <point x="287" y="542" name="fh01"/>
      <point x="307" y="531" type="qcurve"/>
      <point x="299" y="517"/>
      <point x="283" y="489"/>
      <point x="275" y="475" type="qcurve" name="sh04"/>
      <point x="255" y="486"/>
      <point x="218" y="510" name="fh02"/>
      <point x="198" y="521" type="qcurve" name="sh05"/>
      <point x="198" y="499"/>
      <point x="197" y="456"/>
      <point x="197" y="434" type="qcurve"/>
      <point x="137" y="434" type="line" name="sv01"/>
      <point x="137" y="521" type="line" name="sh06"/>
      <point x="118" y="510" name="fh03"/>
      <point x="80" y="489"/>
      <point x="61" y="478" type="qcurve" name="sh08"/>
      <point x="53.0" y="492.5" name="inserted"/>
      <point x="37.0" y="520.0"/>
      <point x="29" y="533" type="qcurve"/>
      <point x="49" y="544" name="fh04"/>
      <point x="86" y="565"/>
      <point x="106" y="576" type="qcurve" name="sh09"/>
      <point x="87" y="587"/>
      <point x="49" y="611" name="fh05"/>
      <point x="30" y="622" type="qcurve"/>
      <point x="38" y="635"/>
      <point x="52" y="660"/>
      <point x="59" y="674" type="qcurve" name="sh07"/>
      <point x="79" y="663"/>
      <point x="117" y="639" name="fh06"/>
      <point x="137" y="628" type="qcurve" name="sv02"/>
      <point x="137" y="720" type="line" name="ah01"/>
      <point x="201" y="720" type="line" name="sh01"/>
      <point x="201" y="697"/>
      <point x="200" y="651"/>
      <point x="200" y="628" type="qcurve" name="sv03"/>
      <point x="220" y="639" name="fv01"/>
      <point x="259" y="662"/>
      <point x="279" y="673" type="qcurve" name="sh03"/>
      <point x="287" y="659"/>
      <point x="301" y="634"/>
      <point x="309" y="621" type="qcurve"/>
      <point x="289" y="610" name="fh07"/>
      <point x="250" y="586"/>
    </contour>
  </outline>
</glyph>
<glyph name="comma" format="1">
  <advance width="200"/>
  <unicode hex="002C"/>
  <outline>
    <contour>
      <point x="152" y="86" type="line" name="sh01"/>
      <point x="130" y="34" name="fh01"/>
      <point x="88" y="-68" name="fh02"/>
      <point x="66" y="-120" type="qcurve" name="fh03"/>
      <point x="10" y="-120" type="line" name="sh02"/>
      <point x="29" y="-68"/>
      <point x="66" y="34" name="fh04"/>
      <point x="86" y="86" type="qcurve" name="ah01"/>
    </contour>
  </outline>
</glyph>
<glyph name="period" format="1">
  <advance width="163"/>
  <unicode hex="002E"/>
  <outline>
    <contour>
      <point x="43" y="42" type="qcurve" name="ah01"/>
      <point x="43" y="61"/>
      <point x="69" y="85"/>
      <point x="85" y="85" type="qcurve" name="sv01"/>
      <point x="101" y="85"/>
      <point x="127" y="61"/>
      <point x="127" y="42" type="qcurve" name="sh01"/>
      <point x="127" y="23"/>
      <point x="101" y="0"/>
      <point x="85" y="0" type="qcurve" name="ab01"/>
      <point x="69" y="0"/>
      <point x="43" y="23"/>
    </contour>
  </outline>
</glyph>
<glyph name="slash" format="1">
  <advance width="363"/>
  <unicode hex="002F"/>
  <outline>
    <contour>
      <point x="17" y="-19" type="line" name="ah01"/>
      <point x="87" y="171"/>
      <point x="225" y="546" name="fh01"/>
      <point x="295" y="736" type="qcurve" name="sh01"/>
      <point x="358" y="736" type="line" name="sh02"/>
      <point x="288" y="546"/>
      <point x="150" y="171"/>
      <point x="80" y="-19" type="qcurve" name="sh03"/>
    </contour>
  </outline>
</glyph>
<glyph name="four" format="1">
  <advance width="522"/>
  <unicode hex="0034"/>
  <outline>
    <contour>
      <point x="264" y="59" type="line" name="sh01"/>
      <point x="340" y="59" type="line"/>
      <point x="340" y="183" type="line" name="dh02"/>
      <point x="37" y="183" type="line" name="sh02"/>
      <point x="403" y="658" type="line" name="at01"/>
      <point x="403" y="244" type="line" name="sh03"/>
      <point x="500" y="244" type="line"/>
      <point x="500" y="183" type="line" name="sh04"/>
      <point x="403" y="183" type="line" name="dh01"/>
      <point x="403" y="59" type="line" name="sv01"/>
      <point x="486" y="59" type="line" name="sh05"/>
      <point x="486" y="0" type="line"/>
      <point x="264" y="0" type="line" name="ab01"/>
    </contour>
    <contour>
      <point x="340" y="474" type="line" name="sv02"/>
      <point x="164" y="244" type="line" name="sh06"/>
      <point x="340" y="244" type="line" name="sh07"/>
    </contour>
  </outline>
</glyph>
<glyph name="five" format="1">
  <advance width="543"/>
  <unicode hex="0035"/>
  <outline>
    <contour>
      <point x="430" y="650" type="line" name="at01"/>
      <point x="430" y="535" type="line" name="sh02"/>
      <point x="370" y="535" type="line" name="sh03"/>
      <point x="370" y="589" type="line" name="sv01"/>
      <point x="206" y="589" type="line" name="sh04"/>
      <point x="206" y="407" type="line" name="iv02"/>
      <point x="218.0" y="411.0" name="inserted"/>
      <point x="242.0" y="415.0"/>
      <point x="254" y="415" type="qcurve" name="iv01"/>
      <point x="297" y="415"/>
      <point x="375" y="382" name="fh01"/>
      <point x="404.5" y="353.5" type="qcurve" smooth="yes" name="inserted"/>
      <point x="434" y="325" name="fh02"/>
      <point x="468" y="249"/>
      <point x="468" y="205" type="qcurve" name="sh01"/>
      <point x="468" y="161"/>
      <point x="434" y="84" name="fh03"/>
      <point x="404.5" y="55.0" type="qcurve" smooth="yes" name="inserted"/>
      <point x="375" y="26" name="fh04"/>
      <point x="297" y="-8"/>
      <point x="254" y="-8" type="qcurve" name="ab01"/>
      <point x="211" y="-8"/>
      <point x="136" y="23"/>
      <point x="107" y="51" type="qcurve" name="sh05"/>
      <point x="153" y="94" type="line" name="sv03"/>
      <point x="172.5" y="73.5" name="inserted"/>
      <point x="222.5" y="53.0"/>
      <point x="253" y="53" type="qcurve" name="sv04"/>
      <point x="284" y="53"/>
      <point x="340" y="77" name="fh06"/>
      <point x="361.0" y="98.0" type="qcurve" smooth="yes" name="inserted"/>
      <point x="382" y="119"/>
      <point x="406" y="174"/>
      <point x="406" y="205" type="qcurve" name="dh02"/>
      <point x="406" y="236"/>
      <point x="382" y="290"/>
      <point x="361.0" y="310.0" type="qcurve" smooth="yes" name="inserted"/>
      <point x="340" y="330" name="fh07"/>
      <point x="284" y="354"/>
      <point x="253" y="354" type="qcurve" name="sv02"/>
      <point x="218" y="354"/>
      <point x="160" y="331" name="fh08"/>
      <point x="143" y="307" type="qcurve" name="iv03"/>
      <point x="143" y="650" type="line" name="dh01"/>
    </contour>
  </outline>
</glyph>
<glyph name="semicolon" format="1">
  <advance width="201"/>
  <unicode hex="003B"/>
  <outline>
    <contour>
      <point x="71" y="292" type="qcurve" name="sh01"/>
      <point x="71" y="311"/>
      <point x="97" y="335"/>
      <point x="114" y="335" type="qcurve" name="av01"/>
      <point x="129" y="335"/>
      <point x="155" y="311"/>
      <point x="155" y="292" type="qcurve" name="sh02"/>
      <point x="155" y="273"/>
      <point x="129" y="250"/>
      <point x="114" y="250" type="qcurve" name="sv01"/>
      <point x="97" y="250"/>
      <point x="71" y="273"/>
    </contour>
    <contour>
      <point x="138" y="86" type="line" name="sh03"/>
      <point x="116" y="34" name="fh01"/>
      <point x="74" y="-68"/>
      <point x="52" y="-120" type="qcurve" name="fh02"/>
      <point x="-5" y="-120" type="line" name="sh04"/>
      <point x="15" y="-68"/>
      <point x="52" y="34" name="fh03"/>
      <point x="72" y="86" type="qcurve" name="ah01"/>
    </contour>
  </outline>
</glyph>
<glyph name="less" format="1">
  <advance width="680"/>
  <unicode hex="003C"/>
  <outline>
    <contour>
      <point x="553" y="70" type="qcurve" name="sh02"/>
      <point x="553" y="-14" type="line" name="sv01"/>
      <point x="443" y="49"/>
      <point x="226" y="175"/>
      <point x="116" y="238" type="qcurve" name="ah01"/>
      <point x="226" y="301"/>
      <point x="443" y="427"/>
      <point x="553" y="490" type="qcurve" name="sv02"/>
      <point x="553" y="406" type="line" name="sh01"/>
      <point x="480" y="364"/>
      <point x="334" y="280" name="fv01"/>
      <point x="261" y="238" type="qcurve" name="ih01"/>
      <point x="334" y="196" name="fv02"/>
      <point x="480" y="112"/>
    </contour>
  </outline>
</glyph>
<glyph name="greater" format="1">
  <advance width="650"/>
  <unicode hex="003E"/>
  <outline>
    <contour>
      <point x="116" y="-14" type="qcurve" name="sv01"/>
      <point x="116" y="70" type="line" name="sh01"/>
      <point x="189" y="112"/>
      <point x="335" y="196" name="fv01"/>
      <point x="408" y="238" type="qcurve" name="ih01"/>
      <point x="335" y="280" name="fv02"/>
      <point x="189" y="364"/>
      <point x="116" y="406" type="qcurve" name="sh02"/>
      <point x="116" y="490" type="line" name="sv02"/>
      <point x="226" y="427"/>
      <point x="443" y="301"/>
      <point x="553" y="238" type="qcurve" name="ah01"/>
      <point x="443" y="175"/>
      <point x="226" y="49"/>
    </contour>
  </outline>
</glyph>
<glyph name="question" format="1">
  <advance width="452"/>
  <unicode hex="003F"/>
  <outline>
    <contour>
      <point x="93" y="565" type="qcurve" name="sh01"/>
      <point x="79" y="570"/>
      <point x="52" y="580"/>
      <point x="38" y="585" type="qcurve" name="dh01"/>
      <point x="46" y="609"/>
      <point x="75" y="661" name="fh01"/>
      <point x="98.0" y="682.5" type="qcurve" smooth="yes" name="inserted"/>
      <point x="121" y="704" name="fv01"/>
      <point x="188" y="732" name="fv02"/>
      <point x="233" y="732" type="qcurve" name="av02"/>
      <point x="274" y="732"/>
      <point x="346" y="701" name="fh02"/>
      <point x="372.5" y="674.5" type="qcurve" smooth="yes" name="inserted"/>
      <point x="399" y="648" name="fh03"/>
      <point x="429" y="577"/>
      <point x="429" y="537" type="qcurve" name="dh02"/>
      <point x="429" y="482"/>
      <point x="376" y="399" name="fh04"/>
      <point x="331" y="366" type="qcurve" name="iv01"/>
      <point x="316" y="354" name="fh05"/>
      <point x="283" y="334" name="fh06"/>
      <point x="269.5" y="321.0" type="qcurve" smooth="yes" name="inserted"/>
      <point x="256" y="308"/>
      <point x="239" y="270"/>
      <point x="239" y="242" type="qcurve"/>
      <point x="239" y="164" type="line" name="sh02"/>
      <point x="176" y="164" type="line" name="ih01"/>
      <point x="176" y="261" type="line"/>
      <point x="176" y="292" name="fh07"/>
      <point x="197" y="332" name="fh08"/>
      <point x="214.5" y="347.0" type="qcurve" smooth="yes" name="inserted"/>
      <point x="232" y="362" name="fv03"/>
      <point x="276" y="389"/>
      <point x="299" y="409" type="qcurve" name="iv02"/>
      <point x="334" y="436"/>
      <point x="366" y="500"/>
      <point x="366" y="537" type="qcurve" name="sh03"/>
      <point x="366" y="566"/>
      <point x="346" y="615"/>
      <point x="328.5" y="633.0" type="qcurve" smooth="yes" name="inserted"/>
      <point x="311" y="651"/>
      <point x="262" y="671"/>
      <point x="233" y="671" type="qcurve" name="sv02"/>
      <point x="176" y="671"/>
      <point x="109" y="616" name="fh09"/>
    </contour>
    <contour>
      <point x="207" y="8" type="qcurve" name="av01"/>
      <point x="191" y="8"/>
      <point x="165" y="31"/>
      <point x="165" y="50" type="qcurve" name="sh04"/>
      <point x="165" y="68"/>
      <point x="191" y="93"/>
      <point x="207" y="93" type="qcurve" name="sv01"/>
      <point x="223" y="93"/>
      <point x="249" y="68"/>
      <point x="249" y="50" type="qcurve" name="sh05"/>
      <point x="249" y="31"/>
      <point x="223" y="8"/>
    </contour>
  </outline>
</glyph>
<glyph name="C" format="1">
  <advance width="610"/>
  <unicode hex="0043"/>
  <outline>
    <contour>
      <point x="515" y="546" type="line" name="sh01"/>
      <point x="515" y="620" type="line" name="fh01"/>
      <point x="486.0" y="634.0" name="inserted"/>
      <point x="424.5" y="648.0"/>
      <point x="392" y="648" type="qcurve" name="sv01"/>
      <point x="331" y="648"/>
      <point x="224" y="601" name="fh02"/>
      <point x="184.0" y="560.0" type="qcurve" smooth="yes" name="inserted"/>
      <point x="144" y="519" name="fh03"/>
      <point x="97" y="410"/>
      <point x="97" y="349" type="qcurve" name="sh02"/>
      <point x="97" y="287" name="fh04"/>
      <point x="143" y="179" name="fh05"/>
      <point x="183.0" y="138.5" type="qcurve" smooth="yes" name="inserted"/>
      <point x="223" y="98" name="fh06"/>
      <point x="330" y="51"/>
      <point x="391" y="51" type="qcurve" name="sv02"/>
      <point x="432" y="51"/>
      <point x="506" y="72" name="fh07"/>
      <point x="540" y="92" type="qcurve" name="sv03"/>
      <point x="574" y="42" type="line" name="sh03"/>
      <point x="534" y="19"/>
      <point x="443" y="-8"/>
      <point x="392" y="-8" type="qcurve" name="ab01"/>
      <point x="318" y="-8"/>
      <point x="188" y="48"/>
      <point x="139.5" y="96.5" type="qcurve" smooth="yes" name="inserted"/>
      <point x="91" y="145"/>
      <point x="35" y="275"/>
      <point x="35" y="349" type="qcurve" name="dh01"/>
      <point x="35" y="423"/>
      <point x="91" y="554"/>
      <point x="139.5" y="602.5" type="qcurve" smooth="yes" name="inserted"/>
      <point x="188" y="651" name="fh08"/>
      <point x="318" y="708"/>
      <point x="392" y="708" type="qcurve" name="at01"/>
      <point x="443" y="708"/>
      <point x="534" y="682"/>
      <point x="575" y="658" type="qcurve"/>
      <point x="575" y="546" type="line" name="dh02"/>
    </contour>
  </outline>
</glyph>
<glyph name="E" format="1">
  <advance width="571"/>
  <unicode hex="0045"/>
  <outline>
    <contour>
      <point x="35" y="59" type="line" name="sh01"/>
      <point x="99" y="59" type="line" name="dh01"/>
      <point x="99" y="640" type="line"/>
      <point x="35" y="640" type="line" name="sh02"/>
      <point x="35" y="700" type="line" name="at01"/>
      <point x="522" y="700" type="line"/>
      <point x="522" y="546" type="line" name="sh03"/>
      <point x="462" y="546" type="line" name="sh04"/>
      <point x="462" y="640" type="line"/>
      <point x="161" y="640" type="line" name="sv01"/>
      <point x="161" y="382" type="line" name="sh06"/>
      <point x="483" y="382" type="line"/>
      <point x="483" y="323" type="line" name="ih01"/>
      <point x="161" y="323" type="line"/>
      <point x="161" y="59" type="line" name="sh05"/>
      <point x="476" y="59" type="line" name="sh07"/>
      <point x="476" y="154" type="line" name="sv02"/>
      <point x="536" y="154" type="line"/>
      <point x="536" y="0" type="line" name="dh02"/>
      <point x="35" y="0" type="line"/>
    </contour>
  </outline>
</glyph>
<glyph name="H" format="1">
  <advance width="755"/>
  <unicode hex="0048"/>
  <outline>
    <contour>
      <point x="499" y="700" type="line" name="sv01"/>
      <point x="720" y="700" type="line"/>
      <point x="720" y="640" type="line" name="sh02"/>
      <point x="642" y="640" type="line" name="sv02"/>
      <point x="642" y="59" type="line" name="dh02"/>
      <point x="720" y="59" type="line" name="sh01"/>
      <point x="720" y="0" type="line"/>
      <point x="499" y="0" type="line" name="sv03"/>
      <point x="499" y="59" type="line" name="sh04"/>
      <point x="579" y="59" type="line" name="sh03"/>
      <point x="579" y="323" type="line"/>
      <point x="176" y="323" type="line" name="sv04"/>
      <point x="176" y="59" type="line" name="sh05"/>
      <point x="257" y="59" type="line" name="sh06"/>
      <point x="257" y="0" type="line"/>
      <point x="35" y="0" type="line" name="ab01"/>
      <point x="35" y="59" type="line" name="sh07"/>
      <point x="113" y="59" type="line" name="dh01"/>
      <point x="113" y="640" type="line"/>
      <point x="35" y="640" type="line" name="sh08"/>
      <point x="35" y="700" type="line" name="at01"/>
      <point x="257" y="700" type="line"/>
      <point x="257" y="640" type="line" name="sh09"/>
      <point x="176" y="640" type="line" name="sv05"/>
      <point x="176" y="382" type="line" name="sh10"/>
      <point x="579" y="382" type="line" name="sh11"/>
      <point x="579" y="640" type="line"/>
      <point x="499" y="640" type="line" name="sh12"/>
    </contour>
  </outline>
</glyph>
<glyph name="I" format="1">
  <advance width="292"/>
  <unicode hex="0049"/>
  <outline>
    <contour>
      <point x="35" y="59" type="line" name="sh01"/>
      <point x="113" y="59" type="line" name="dh01"/>
      <point x="113" y="640" type="line" name="sv01"/>
      <point x="35" y="640" type="line" name="sh02"/>
      <point x="35" y="700" type="line" name="at01"/>
      <point x="257" y="700" type="line"/>
      <point x="257" y="640" type="line" name="sh04"/>
      <point x="176" y="640" type="line" name="sv02"/>
      <point x="176" y="59" type="line" name="dh02"/>
      <point x="257" y="59" type="line" name="sh03"/>
      <point x="257" y="0" type="line" name="ab01"/>
      <point x="35" y="0" type="line"/>
    </contour>
  </outline>
</glyph>
<glyph name="J" format="1">
  <advance width="294"/>
  <unicode hex="004A"/>
  <outline>
    <contour>
      <point x="35" y="700" type="line" name="at01"/>
      <point x="259" y="700" type="line"/>
      <point x="259" y="90" type="line" name="dh02"/>
      <point x="259" y="34"/>
      <point x="224" y="-52"/>
      <point x="194.0" y="-81.0" type="qcurve" smooth="yes" name="inserted"/>
      <point x="164" y="-110" name="fh01"/>
      <point x="82" y="-142"/>
      <point x="35" y="-143" type="qcurve" name="av01"/>
      <point x="35" y="-84" type="line" name="dh01"/>
      <point x="70" y="-82"/>
      <point x="130" y="-57" name="fh02"/>
      <point x="151.5" y="-34.5" type="qcurve" smooth="yes" name="inserted"/>
      <point x="173" y="-12" name="fh03"/>
      <point x="197" y="52"/>
      <point x="197" y="93" type="qcurve" name="sh01"/>
      <point x="197" y="640" type="line"/>
      <point x="35" y="640" type="line" name="sh02"/>
    </contour>
  </outline>
</glyph>
<glyph name="M" format="1">
  <advance width="971"/>
  <unicode hex="004D"/>
  <outline>
    <contour>
      <point x="827" y="700" type="qcurve" name="ih01"/>
      <point x="935" y="700" type="line" name="at02"/>
      <point x="935" y="640" type="line" name="sh04"/>
      <point x="851" y="640" type="line"/>
      <point x="851" y="59" type="line" name="sh02"/>
      <point x="936" y="59" type="line" name="sh03"/>
      <point x="936" y="0" type="line"/>
      <point x="715" y="0" type="line" name="ab02"/>
      <point x="715" y="59" type="line" name="sh05"/>
      <point x="789" y="59" type="line" name="sh01"/>
      <point x="789" y="522" type="line"/>
      <point x="789" y="528"/>
      <point x="790" y="553" name="sv02"/>
      <point x="791" y="558" type="qcurve"/>
      <point x="786" y="550"/>
      <point x="773" y="532"/>
      <point x="766" y="523" type="qcurve" name="fh01"/>
      <point x="740" y="487" name="fv01"/>
      <point x="671" y="396" name="fv02"/>
      <point x="633.0" y="347.5" type="qcurve" smooth="yes" name="inserted"/>
      <point x="595" y="299"/>
      <point x="519" y="200"/>
      <point x="485" y="156" type="qcurve" name="ah01"/>
      <point x="429" y="229"/>
      <point x="346" y="337" name="fh02"/>
      <point x="316.5" y="375.5" type="qcurve" smooth="yes" name="inserted"/>
      <point x="287" y="414" name="fv03"/>
      <point x="248" y="466" name="fv04"/>
      <point x="234.5" y="483.5" type="qcurve" smooth="yes" name="inserted"/>
      <point x="221" y="501"/>
      <point x="202" y="525" name="fh03"/>
      <point x="194" y="536" type="qcurve" name="fh04"/>
      <point x="179" y="558" type="line" name="sv01"/>
      <point x="180" y="549"/>
      <point x="181" y="532"/>
      <point x="181" y="522" type="qcurve"/>
      <point x="181" y="59" type="line" name="sh06"/>
      <point x="257" y="59" type="line" name="sh07"/>
      <point x="257" y="0" type="line"/>
      <point x="35" y="0" type="line" name="ab01"/>
      <point x="35" y="59" type="line" name="sh09"/>
      <point x="119" y="59" type="line" name="sh08"/>
      <point x="119" y="640" type="line"/>
      <point x="35" y="640" type="line" name="sh10"/>
      <point x="35" y="700" type="line" name="at01"/>
      <point x="143" y="700" type="line" name="ih02"/>
      <point x="173" y="661" name="fh05"/>
      <point x="255" y="554" name="fh06"/>
      <point x="301.0" y="494.5" type="qcurve" smooth="yes" name="inserted"/>
      <point x="347" y="435" name="fv05"/>
      <point x="442" y="311" name="fh07"/>
      <point x="485" y="256" type="qcurve" name="sh11"/>
      <point x="571" y="367" name="fh08"/>
      <point x="741" y="589" name="fh09"/>
    </contour>
  </outline>
</glyph>
<glyph name="R" format="1">
  <advance width="574"/>
  <unicode hex="0052"/>
  <outline>
    <contour>
      <point x="35" y="59" type="line" name="sh01"/>
      <point x="88" y="59" type="line" name="dh01"/>
      <point x="88" y="640" type="line"/>
      <point x="35" y="640" type="line" name="sh02"/>
      <point x="35" y="700" type="line" name="at01"/>
      <point x="245" y="700" type="line"/>
      <point x="278" y="700"/>
      <point x="356" y="679" name="fv01"/>
      <point x="390.5" y="656.5" type="qcurve" smooth="yes" name="inserted"/>
      <point x="425" y="634" name="fh01"/>
      <point x="471" y="564"/>
      <point x="471" y="514" type="qcurve" name="dh02"/>
      <point x="471" y="440"/>
      <point x="395" y="342" name="fh02"/>
      <point x="323" y="326" type="qcurve" name="ih01"/>
      <point x="448" y="59" type="line" name="sh03"/>
      <point x="539" y="59" type="line" name="sh04"/>
      <point x="539" y="0" type="line"/>
      <point x="409" y="0" type="line" name="sh06"/>
      <point x="257" y="322" type="line" name="sh05"/>
      <point x="246" y="321"/>
      <point x="224" y="321"/>
      <point x="213" y="321" type="qcurve"/>
      <point x="150" y="321" type="line" name="iv01"/>
      <point x="150" y="59" type="line" name="sh07"/>
      <point x="257" y="59" type="line" name="sh08"/>
      <point x="257" y="0" type="line"/>
      <point x="35" y="0" type="line" name="ab01"/>
    </contour>
    <contour>
      <point x="150" y="381" type="line" name="sh09"/>
      <point x="245" y="381" type="line"/>
      <point x="293" y="381"/>
      <point x="357" y="406" name="fh03"/>
      <point x="375.5" y="425.5" type="qcurve" smooth="yes" name="inserted"/>
      <point x="394" y="445"/>
      <point x="409" y="492"/>
      <point x="409" y="514" type="qcurve" name="sh10"/>
      <point x="409" y="539"/>
      <point x="384" y="585" name="fh04"/>
      <point x="362.5" y="602.0" type="qcurve" smooth="yes" name="inserted"/>
      <point x="341" y="619" name="fh05"/>
      <point x="281" y="640"/>
      <point x="246" y="640" type="qcurve"/>
      <point x="150" y="640" type="line" name="sv01"/>
    </contour>
  </outline>
</glyph>
<glyph name="U" format="1">
  <advance width="712"/>
  <unicode hex="0055"/>
  <outline>
    <contour>
      <point x="35" y="700" type="line" name="at01"/>
      <point x="257" y="700" type="line"/>
      <point x="257" y="640" type="line" name="sh02"/>
      <point x="174" y="640" type="line"/>
      <point x="174" y="229" type="line" name="sh01"/>
      <point x="174" y="186"/>
      <point x="201" y="120" name="fh01"/>
      <point x="225.0" y="97.5" type="qcurve" smooth="yes" name="inserted"/>
      <point x="249" y="75"/>
      <point x="316" y="51"/>
      <point x="356" y="51" type="qcurve" name="sv01"/>
      <point x="395" y="51"/>
      <point x="462" y="75" name="fh02"/>
      <point x="486.5" y="97.5" type="qcurve" smooth="yes" name="inserted"/>
      <point x="511" y="120" name="fh03"/>
      <point x="538" y="186"/>
      <point x="538" y="229" type="qcurve" name="sh03"/>
      <point x="538" y="640" type="line"/>
      <point x="456" y="640" type="line" name="sh04"/>
      <point x="456" y="700" type="line" name="at02"/>
      <point x="677" y="700" type="line"/>
      <point x="677" y="640" type="line" name="sh05"/>
      <point x="600" y="640" type="line"/>
      <point x="600" y="226" type="line" name="dh02"/>
      <point x="600" y="169"/>
      <point x="563" y="81" name="fh04"/>
      <point x="530.0" y="51.5" type="qcurve" smooth="yes" name="inserted"/>
      <point x="497" y="22" name="fh05"/>
      <point x="408" y="-8"/>
      <point x="356" y="-8" type="qcurve" name="ab01"/>
      <point x="303" y="-8"/>
      <point x="214" y="22" name="fh06"/>
      <point x="181.5" y="51.5" type="qcurve" smooth="yes" name="inserted"/>
      <point x="149" y="81" name="fh07"/>
      <point x="112" y="169"/>
      <point x="112" y="226" type="qcurve" name="dh01"/>
      <point x="112" y="640" type="line"/>
      <point x="35" y="640" type="line" name="sh06"/>
    </contour>
  </outline>
</glyph>
<glyph name="V" format="1">
  <advance width="820"/>
  <unicode hex="0056"/>
  <outline>
    <contour>
      <point x="35" y="700" type="line" name="at01"/>
      <point x="257" y="700" type="line"/>
      <point x="257" y="640" type="line" name="sh03"/>
      <point x="183" y="640" type="line" name="sh02"/>
      <point x="237" y="514"/>
      <point x="343" y="263" name="fh01"/>
      <point x="397" y="137" type="qcurve" name="fh02"/>
      <point x="406" y="106" type="line" name="sh04"/>
      <point x="415" y="137" type="line" name="fh03"/>
      <point x="469" y="263" name="fh04"/>
      <point x="574" y="513" name="fh05"/>
      <point x="628" y="640" type="qcurve" name="sh06"/>
      <point x="564" y="640" type="line" name="sh07"/>
      <point x="564" y="700" type="line" name="sv01"/>
      <point x="785" y="700" type="line"/>
      <point x="785" y="640" type="line" name="sh08"/>
      <point x="691" y="640" type="line" name="sh05"/>
      <point x="406" y="-32" type="line" name="ah01"/>
      <point x="334" y="137" name="fh06"/>
      <point x="192" y="471"/>
      <point x="120" y="640" type="qcurve" name="sh01"/>
      <point x="35" y="640" type="line" name="sh09"/>
    </contour>
  </outline>
</glyph>
<glyph name="W" format="1">
  <advance width="1191"/>
  <unicode hex="0057"/>
  <outline>
    <contour>
      <point x="35" y="700" type="line" name="at01"/>
      <point x="257" y="700" type="line"/>
      <point x="257" y="640" type="line" name="sh03"/>
      <point x="183" y="640" type="line" name="sh02"/>
      <point x="237" y="514"/>
      <point x="343" y="263"/>
      <point x="397" y="137" type="qcurve" name="fh01"/>
      <point x="406" y="106" type="line" name="sh04"/>
      <point x="435" y="202" name="fh02"/>
      <point x="522" y="389" name="fh03"/>
      <point x="561" y="482" type="qcurve" name="ih01"/>
      <point x="544" y="521" name="fh04"/>
      <point x="510" y="600"/>
      <point x="493" y="640" type="qcurve" name="sh06"/>
      <point x="405" y="640" type="line" name="sh07"/>
      <point x="405" y="700" type="line" name="sv01"/>
      <point x="627" y="700" type="line"/>
      <point x="627" y="640" type="line" name="sh09"/>
      <point x="556" y="640" type="line" name="sh08"/>
      <point x="610" y="514" name="fh05"/>
      <point x="715" y="263" name="fh06"/>
      <point x="770" y="137" type="qcurve" name="fh07"/>
      <point x="779" y="106" type="line" name="sh10"/>
      <point x="788" y="137" type="line"/>
      <point x="842" y="263"/>
      <point x="947" y="513"/>
      <point x="1000" y="640" type="qcurve" name="sh12"/>
      <point x="934" y="640" type="line" name="sh13"/>
      <point x="934" y="700" type="line" name="sv02"/>
      <point x="1156" y="700" type="line"/>
      <point x="1156" y="640" type="line" name="sh14"/>
      <point x="1064" y="640" type="line" name="sh11"/>
      <point x="992" y="471"/>
      <point x="850" y="137" name="fh08"/>
      <point x="779" y="-32" type="qcurve" name="sh05"/>
      <point x="602" y="385" type="line" name="fh09"/>
      <point x="592" y="416" type="line" name="ih02"/>
      <point x="575" y="360" name="fh10"/>
      <point x="530" y="247" name="fh11"/>
      <point x="505.0" y="190.5" type="qcurve" smooth="yes" name="inserted"/>
      <point x="480" y="134" name="fh12"/>
      <point x="429" y="22" name="fh13"/>
      <point x="406" y="-32" type="qcurve" name="ah01"/>
      <point x="334" y="137"/>
      <point x="192" y="471" name="fv01"/>
      <point x="120" y="640" type="qcurve" name="sh01"/>
      <point x="35" y="640" type="line" name="sh15"/>
    </contour>
  </outline>
</glyph>
<glyph name="Z" format="1">
  <advance width="629"/>
  <unicode hex="005A"/>
  <outline>
    <contour>
      <point x="594" y="222" type="line" name="dh02"/>
      <point x="594" y="0" type="line"/>
      <point x="35" y="0" type="line" name="ab01"/>
      <point x="35" y="60" type="line" name="ih01"/>
      <point x="488" y="640" type="line" name="sh01"/>
      <point x="51" y="640" type="line"/>
      <point x="51" y="735" type="line" name="dh01"/>
      <point x="114" y="735" type="line" name="sh02"/>
      <point x="114" y="700" type="line"/>
      <point x="565" y="700" type="line" name="at01"/>
      <point x="565" y="640" type="line" name="ih02"/>
      <point x="112" y="60" type="line" name="sh03"/>
      <point x="534" y="60" type="line"/>
      <point x="534" y="222" type="line" name="sh04"/>
    </contour>
  </outline>
</glyph>
<glyph name="asciicircum" format="1">
  <advance width="470"/>
  <unicode hex="005E"/>
  <outline>
    <contour>
      <point x="232" y="660" type="qcurve" name="sv02"/>
      <point x="262" y="615"/>
      <point x="322" y="524"/>
      <point x="352" y="479" type="qcurve" name="dh02"/>
      <point x="306" y="479" type="line" name="sh01"/>
      <point x="287" y="503"/>
      <point x="250" y="551"/>
      <point x="232" y="576" type="qcurve" name="sv01"/>
      <point x="213" y="551"/>
      <point x="177" y="503"/>
      <point x="158" y="479" type="qcurve" name="sh02"/>
      <point x="112" y="479" type="line" name="dh01"/>
      <point x="142" y="524"/>
      <point x="202" y="615"/>
    </contour>
  </outline>
</glyph>
<glyph name="a" format="1">
  <advance width="542"/>
  <unicode hex="0061"/>
  <outline>
    <contour>
      <point x="35" y="187" type="qcurve" name="dh01"/>
      <point x="35" y="227"/>
      <point x="66" y="298"/>
      <point x="92.5" y="325.0" type="qcurve" smooth="yes" name="inserted"/>
      <point x="119" y="352"/>
      <point x="192" y="384"/>
      <point x="234" y="384" type="qcurve" name="at01"/>
      <point x="262" y="384"/>
      <point x="311" y="368"/>
      <point x="330.0" y="356.0" type="qcurve" smooth="yes" name="inserted"/>
      <point x="349" y="344"/>
      <point x="374" y="318"/>
      <point x="377" y="308" type="qcurve" name="iv01"/>
      <point x="377" y="324"/>
      <point x="380" y="358"/>
      <point x="381" y="375" type="qcurve" name="ih01"/>
      <point x="432" y="375" type="line" name="at02"/>
      <point x="432" y="59" type="line" name="dh02"/>
      <point x="507" y="59" type="line" name="sh02"/>
      <point x="507" y="0" type="line" name="ab02"/>
      <point x="377" y="0" type="line" name="sh01"/>
      <point x="377" y="30" type="line"/>
      <point x="377" y="63" type="line" name="iv02"/>
      <point x="373" y="53"/>
      <point x="350" y="29"/>
      <point x="331.5" y="18.0" type="qcurve" smooth="yes" name="inserted"/>
      <point x="313" y="7"/>
      <point x="264" y="-8"/>
      <point x="234" y="-8" type="qcurve" name="ab01"/>
      <point x="192" y="-8"/>
      <point x="119" y="23"/>
      <point x="92.5" y="49.5" type="qcurve" smooth="yes" name="inserted"/>
      <point x="66" y="76"/>
      <point x="35" y="147"/>
    </contour>
    <contour>
      <point x="98" y="188" type="qcurve" name="sh03"/>
      <point x="98" y="159"/>
      <point x="119" y="110" name="fh01"/>
      <point x="137.0" y="92.0" type="qcurve" smooth="yes" name="inserted"/>
      <point x="155" y="74" name="fh02"/>
      <point x="205" y="53"/>
      <point x="234" y="53" type="qcurve" name="sv01"/>
      <point x="263" y="53"/>
      <point x="313" y="74"/>
      <point x="331.0" y="92.0" type="qcurve" smooth="yes" name="inserted"/>
      <point x="349" y="110" name="fh03"/>
      <point x="370" y="159"/>
      <point x="370" y="188" type="qcurve" name="sh04"/>
      <point x="370" y="216"/>
      <point x="349" y="266" name="fh04"/>
      <point x="331.0" y="284.0" type="qcurve" smooth="yes" name="inserted"/>
      <point x="313" y="302"/>
      <point x="263" y="323"/>
      <point x="234" y="323" type="qcurve" name="sv02"/>
      <point x="205" y="323"/>
      <point x="155" y="302" name="fh05"/>
      <point x="137.0" y="284.0" type="qcurve" smooth="yes" name="inserted"/>
      <point x="119" y="266"/>
      <point x="98" y="216"/>
    </contour>
  </outline>
</glyph>
<glyph name="b" format="1">
  <advance width="542"/>
  <unicode hex="0062"/>
  <outline>
    <contour>
      <point x="35" y="59" type="line" name="sh01"/>
      <point x="110" y="59" type="line" name="dh01"/>
      <point x="110" y="690" type="line"/>
      <point x="42" y="690" type="line" name="sh02"/>
      <point x="42" y="750" type="line" name="at01"/>
      <point x="172" y="750" type="line"/>
      <point x="172" y="350" type="line" name="sh03"/>
      <point x="170" y="339"/>
      <point x="167" y="320"/>
      <point x="165" y="310" type="qcurve" name="iv01"/>
      <point x="169" y="320"/>
      <point x="195" y="346" name="fv01"/>
      <point x="214.0" y="357.5" type="qcurve" smooth="yes" name="inserted"/>
      <point x="233" y="369" name="fv02"/>
      <point x="281" y="384"/>
      <point x="309" y="384" type="qcurve" name="at02"/>
      <point x="351" y="384"/>
      <point x="423" y="353"/>
      <point x="449.5" y="326.0" type="qcurve" smooth="yes" name="inserted"/>
      <point x="476" y="299"/>
      <point x="507" y="228"/>
      <point x="507" y="188" type="qcurve" name="dh02"/>
      <point x="507" y="148"/>
      <point x="476" y="77"/>
      <point x="449.5" y="50.0" type="qcurve" smooth="yes" name="inserted"/>
      <point x="423" y="23"/>
      <point x="351" y="-8"/>
      <point x="309" y="-8" type="qcurve" name="ab02"/>
      <point x="279" y="-8"/>
      <point x="230" y="7" name="fh01"/>
      <point x="211.5" y="18.0" type="qcurve" smooth="yes" name="inserted"/>
      <point x="193" y="29" name="fv03"/>
      <point x="169" y="53"/>
      <point x="165" y="63" type="qcurve" name="iv02"/>
      <point x="165" y="30" type="line"/>
      <point x="165" y="0" type="line" name="sh04"/>
      <point x="35" y="0" type="line" name="ab01"/>
    </contour>
    <contour>
      <point x="444" y="188" type="qcurve" name="sh05"/>
      <point x="444" y="216"/>
      <point x="424" y="266"/>
      <point x="406.0" y="284.0" type="qcurve" smooth="yes" name="inserted"/>
      <point x="388" y="302" name="fh02"/>
      <point x="338" y="323"/>
      <point x="309" y="323" type="qcurve" name="sv01"/>
      <point x="279" y="323"/>
      <point x="229" y="302" name="fv04"/>
      <point x="211.0" y="284.0" type="qcurve" smooth="yes" name="inserted"/>
      <point x="193" y="266"/>
      <point x="172" y="216"/>
      <point x="172" y="188" type="qcurve" name="sh06"/>
      <point x="172" y="159"/>
      <point x="193" y="110"/>
      <point x="211.0" y="92.0" type="qcurve" smooth="yes" name="inserted"/>
      <point x="229" y="74" name="fv05"/>
      <point x="279" y="53"/>
      <point x="309" y="53" type="qcurve" name="sv02"/>
      <point x="338" y="53"/>
      <point x="388" y="74" name="fh03"/>
      <point x="406.0" y="92.0" type="qcurve" smooth="yes" name="inserted"/>
      <point x="424" y="110" name="fv06"/>
      <point x="444" y="159"/>
    </contour>
  </outline>
</glyph>
<glyph name="d" format="1">
  <advance width="542"/>
  <unicode hex="0064"/>
  <outline>
    <contour>
      <point x="377" y="30" type="line"/>
      <point x="377" y="63" type="line" name="iv01"/>
      <point x="373" y="53"/>
      <point x="350" y="29" name="fv01"/>
      <point x="331.5" y="18.0" type="qcurve" smooth="yes" name="inserted"/>
      <point x="313" y="7"/>
      <point x="264" y="-8"/>
      <point x="234" y="-8" type="qcurve" name="ab01"/>
      <point x="192" y="-8"/>
      <point x="119" y="23"/>
      <point x="92.5" y="50.0" type="qcurve" smooth="yes" name="inserted"/>
      <point x="66" y="77"/>
      <point x="35" y="148"/>
      <point x="35" y="188" type="qcurve" name="dh01"/>
      <point x="35" y="228"/>
      <point x="66" y="299"/>
      <point x="92.5" y="326.0" type="qcurve" smooth="yes" name="inserted"/>
      <point x="119" y="353"/>
      <point x="192" y="384"/>
      <point x="234" y="384" type="qcurve" name="at01"/>
      <point x="261" y="384"/>
      <point x="309" y="369" name="fh01"/>
      <point x="328.0" y="357.5" type="qcurve" smooth="yes" name="inserted"/>
      <point x="347" y="346" name="fh02"/>
      <point x="372" y="320"/>
      <point x="377" y="310" type="qcurve" name="iv02"/>
      <point x="375" y="324"/>
      <point x="372" y="352"/>
      <point x="370" y="367" type="qcurve" name="sh01"/>
      <point x="370" y="690" type="line"/>
      <point x="302" y="690" type="line" name="sh02"/>
      <point x="302" y="750" type="line" name="at02"/>
      <point x="432" y="750" type="line"/>
      <point x="432" y="59" type="line" name="dh02"/>
      <point x="507" y="59" type="line" name="sh03"/>
      <point x="507" y="0" type="line" name="ab02"/>
      <point x="377" y="0" type="line" name="sh04"/>
    </contour>
    <contour>
      <point x="98" y="188" type="qcurve" name="sh05"/>
      <point x="98" y="159"/>
      <point x="119" y="110"/>
      <point x="137.0" y="92.0" type="qcurve" smooth="yes" name="inserted"/>
      <point x="155" y="74" name="fh03"/>
      <point x="205" y="53"/>
      <point x="234" y="53" type="qcurve" name="sv01"/>
      <point x="263" y="53"/>
      <point x="313" y="74" name="fh04"/>
      <point x="331.0" y="92.0" type="qcurve" smooth="yes" name="inserted"/>
      <point x="349" y="110"/>
      <point x="370" y="159"/>
      <point x="370" y="188" type="qcurve" name="sh06"/>
      <point x="370" y="216"/>
      <point x="349" y="266"/>
      <point x="331.0" y="284.0" type="qcurve" smooth="yes" name="inserted"/>
      <point x="313" y="302" name="fh05"/>
      <point x="263" y="323"/>
      <point x="234" y="323" type="qcurve" name="sv02"/>
      <point x="205" y="323"/>
      <point x="155" y="302" name="fh06"/>
      <point x="137.0" y="284.0" type="qcurve" smooth="yes" name="inserted"/>
      <point x="119" y="266"/>
      <point x="98" y="216"/>
    </contour>
  </outline>
</glyph>
<glyph name="e" format="1">
  <advance width="445"/>
  <unicode hex="0065"/>
  <outline>
    <contour>
      <point x="233" y="323" type="qcurve" name="sv01"/>
      <point x="202" y="323"/>
      <point x="150" y="299" name="fh01"/>
      <point x="132.0" y="279.0" type="qcurve" smooth="yes" name="inserted"/>
      <point x="114" y="259"/>
      <point x="96" y="207"/>
      <point x="99" y="178" type="qcurve" name="sh01"/>
      <point x="156" y="200" name="fh02"/>
      <point x="270" y="243" name="mv01"/>
      <point x="327" y="265" type="qcurve" name="sh02"/>
      <point x="312" y="291" name="fh03"/>
      <point x="263" y="323"/>
    </contour>
    <contour>
      <point x="407" y="230" type="qcurve" name="dh02"/>
      <point x="116" y="119" type="line" name="ih01"/>
      <point x="133" y="89" name="fh04"/>
      <point x="194" y="53" name="fh05"/>
      <point x="233" y="53" type="qcurve" name="sv02"/>
      <point x="260" y="53"/>
      <point x="307" y="73"/>
      <point x="324" y="90" type="qcurve" name="sv03"/>
      <point x="333" y="79"/>
      <point x="352" y="56"/>
      <point x="362" y="45" type="qcurve" name="ih02"/>
      <point x="336" y="20"/>
      <point x="271" y="-8"/>
      <point x="233" y="-8" type="qcurve" name="ab01"/>
      <point x="192" y="-8"/>
      <point x="120" y="23" name="fh06"/>
      <point x="93.0" y="49.5" type="qcurve" smooth="yes" name="inserted"/>
      <point x="66" y="76"/>
      <point x="35" y="147" name="fh07"/>
      <point x="35" y="188" type="qcurve" name="dh01"/>
      <point x="35" y="228"/>
      <point x="66" y="300"/>
      <point x="93.0" y="326.5" type="qcurve" smooth="yes" name="inserted"/>
      <point x="120" y="353"/>
      <point x="192" y="384"/>
      <point x="233" y="384" type="qcurve" name="at01"/>
      <point x="264" y="384"/>
      <point x="319" y="361" name="fh08"/>
      <point x="341.5" y="340.5" type="qcurve" smooth="yes" name="inserted"/>
      <point x="364" y="320"/>
      <point x="398" y="263" name="fh09"/>
    </contour>
  </outline>
</glyph>
<glyph name="k" format="1">
  <advance width="515"/>
  <unicode hex="006B"/>
  <outline>
    <contour>
      <point x="287" y="59" type="line" name="sh02"/>
      <point x="317" y="59" type="line" name="sh01"/>
      <point x="294" y="89" name="fh01"/>
      <point x="250" y="149" name="fh02"/>
      <point x="229" y="179" type="qcurve" name="ih01"/>
      <point x="172" y="126" type="line" name="iv01"/>
      <point x="172" y="59" type="line" name="sh03"/>
      <point x="243" y="59" type="line" name="sh06"/>
      <point x="243" y="0" type="line"/>
      <point x="35" y="0" type="line" name="ab01"/>
      <point x="35" y="59" type="line" name="sh07"/>
      <point x="110" y="59" type="line" name="dh01"/>
      <point x="110" y="690" type="line"/>
      <point x="42" y="690" type="line" name="sh08"/>
      <point x="42" y="750" type="line" name="at01"/>
      <point x="172" y="750" type="line"/>
      <point x="172" y="200" type="line" name="sh04"/>
      <point x="295" y="315" type="line" name="sh09"/>
      <point x="246" y="315" type="line" name="sh10"/>
      <point x="246" y="375" type="line" name="at02"/>
      <point x="439" y="375" type="line"/>
      <point x="439" y="315" type="line" name="sh11"/>
      <point x="372" y="315" type="line" name="sh05"/>
      <point x="346" y="290"/>
      <point x="299" y="245"/>
      <point x="273" y="220" type="qcurve" name="ih02"/>
      <point x="302" y="180"/>
      <point x="361" y="100"/>
      <point x="390" y="59" type="qcurve" name="dh02"/>
      <point x="480" y="59" type="line" name="sh12"/>
      <point x="480" y="0" type="line"/>
      <point x="287" y="0" type="line" name="ab02"/>
    </contour>
  </outline>
</glyph>
<glyph name="l" format="1">
  <advance width="278"/>
  <unicode hex="006C"/>
  <outline>
    <contour>
      <point x="35" y="59" type="line" name="sh01"/>
      <point x="110" y="59" type="line" name="dh01"/>
      <point x="110" y="690" type="line" name="sv01"/>
      <point x="42" y="690" type="line" name="sh02"/>
      <point x="42" y="750" type="line" name="at01"/>
      <point x="172" y="750" type="line"/>
      <point x="172" y="59" type="line" name="dh02"/>
      <point x="243" y="59" type="line" name="sh03"/>
      <point x="243" y="0" type="line" name="ab01"/>
      <point x="35" y="0" type="line"/>
    </contour>
  </outline>
</glyph>
<glyph name="m" format="1">
  <advance width="849"/>
  <unicode hex="006D"/>
  <outline>
    <contour>
      <point x="606" y="59" type="line" name="sh04"/>
      <point x="683" y="59" type="line" name="sh03"/>
      <point x="683" y="247" type="line"/>
      <point x="681" y="276"/>
      <point x="642" y="320" name="fh01"/>
      <point x="602" y="322" type="qcurve" name="sv01"/>
      <point x="574" y="322"/>
      <point x="523" y="303"/>
      <point x="503.5" y="286.0" type="qcurve" smooth="yes" name="inserted"/>
      <point x="484" y="269"/>
      <point x="460" y="222"/>
      <point x="460" y="195" type="qcurve"/>
      <point x="460" y="59" type="line" name="dh02"/>
      <point x="528" y="59" type="line" name="sh05"/>
      <point x="528" y="0" type="line"/>
      <point x="321" y="0" type="line" name="sv02"/>
      <point x="321" y="59" type="line" name="sh06"/>
      <point x="398" y="59" type="line" name="sh01"/>
      <point x="398" y="247" type="line"/>
      <point x="396" y="276"/>
      <point x="357" y="320" name="fh02"/>
      <point x="317" y="322" type="qcurve" name="sv03"/>
      <point x="288" y="322"/>
      <point x="237" y="302"/>
      <point x="217.0" y="285.0" type="qcurve" smooth="yes" name="inserted"/>
      <point x="197" y="268"/>
      <point x="174" y="221"/>
      <point x="174" y="193" type="qcurve"/>
      <point x="174" y="59" type="line" name="sh07"/>
      <point x="243" y="59" type="line" name="sh08"/>
      <point x="243" y="0" type="line"/>
      <point x="35" y="0" type="line" name="ab01"/>
      <point x="35" y="59" type="line" name="sh09"/>
      <point x="112" y="59" type="line" name="dh01"/>
      <point x="112" y="315" type="line"/>
      <point x="43" y="315" type="line" name="sh10"/>
      <point x="43" y="375" type="line" name="at01"/>
      <point x="165" y="375" type="line"/>
      <point x="166" y="353" type="line"/>
      <point x="167" y="332"/>
      <point x="170" y="299"/>
      <point x="171" y="278" type="qcurve" name="sh11"/>
      <point x="192" y="326" name="fh03"/>
      <point x="278" y="382" name="fh04"/>
      <point x="335" y="383" type="qcurve" name="at02"/>
      <point x="388" y="383" name="fh05"/>
      <point x="453" y="328" name="fh06"/>
      <point x="459" y="283" type="qcurve" name="sh12"/>
      <point x="481" y="329"/>
      <point x="565" y="382" name="fh07"/>
      <point x="620" y="383" type="qcurve" name="at03"/>
      <point x="677" y="383" name="fh08"/>
      <point x="744" y="321" name="fh09"/>
      <point x="746" y="271" type="qcurve"/>
      <point x="746" y="59" type="line" name="sh02"/>
      <point x="814" y="59" type="line" name="sh13"/>
      <point x="814" y="0" type="line"/>
      <point x="606" y="0" type="line" name="sv04"/>
    </contour>
  </outline>
</glyph>
<glyph name="q" format="1">
  <advance width="545"/>
  <unicode hex="0071"/>
  <outline>
    <contour>
      <point x="290" y="-191" type="line" name="sh02"/>
      <point x="370" y="-191" type="line" name="sh01"/>
      <point x="370" y="32" type="line"/>
      <point x="371" y="39"/>
      <point x="374" y="53"/>
      <point x="376" y="61" type="qcurve" name="iv01"/>
      <point x="371" y="50"/>
      <point x="346" y="26" name="fh01"/>
      <point x="328.0" y="15.5" type="qcurve" smooth="yes" name="inserted"/>
      <point x="310" y="5"/>
      <point x="262" y="-9"/>
      <point x="234" y="-9" type="qcurve" name="ab02"/>
      <point x="192" y="-9"/>
      <point x="119" y="22"/>
      <point x="92.5" y="49.0" type="qcurve" smooth="yes" name="inserted"/>
      <point x="66" y="76"/>
      <point x="35" y="147"/>
      <point x="35" y="188" type="qcurve" name="dh01"/>
      <point x="35" y="228"/>
      <point x="66" y="299"/>
      <point x="92.5" y="325.5" type="qcurve" smooth="yes" name="inserted"/>
      <point x="119" y="352"/>
      <point x="192" y="383"/>
      <point x="234" y="383" type="qcurve" name="at01"/>
      <point x="261" y="383"/>
      <point x="310" y="367"/>
      <point x="329.0" y="355.5" type="qcurve" smooth="yes" name="inserted"/>
      <point x="348" y="344" name="fv01"/>
      <point x="373" y="317"/>
      <point x="377" y="307" type="qcurve" name="sh03"/>
      <point x="377" y="324"/>
      <point x="381" y="358"/>
      <point x="381" y="375" type="qcurve"/>
      <point x="510" y="375" type="line" name="at02"/>
      <point x="510" y="315" type="line" name="sh04"/>
      <point x="432" y="315" type="line"/>
      <point x="432" y="-191" type="line" name="dh02"/>
      <point x="498" y="-191" type="line" name="sh05"/>
      <point x="498" y="-250" type="line"/>
      <point x="290" y="-250" type="line" name="ab01"/>
    </contour>
    <contour>
      <point x="98" y="188" type="qcurve" name="sh06"/>
      <point x="98" y="159"/>
      <point x="119" y="110" name="fh02"/>
      <point x="137.0" y="91.5" type="qcurve" smooth="yes" name="inserted"/>
      <point x="155" y="73" name="fh03"/>
      <point x="205" y="52"/>
      <point x="234" y="52" type="qcurve" name="sv01"/>
      <point x="263" y="52"/>
      <point x="313" y="73" name="fh04"/>
      <point x="331.0" y="91.5" type="qcurve" smooth="yes" name="inserted"/>
      <point x="349" y="110"/>
      <point x="370" y="159"/>
      <point x="370" y="188" type="qcurve" name="sh07"/>
      <point x="370" y="216"/>
      <point x="349" y="265"/>
      <point x="331.0" y="283.0" type="qcurve" smooth="yes" name="inserted"/>
      <point x="313" y="301" name="fv02"/>
      <point x="263" y="322"/>
      <point x="234" y="322" type="qcurve" name="sv02"/>
      <point x="205" y="322"/>
      <point x="155" y="301" name="fh05"/>
      <point x="137.0" y="283.0" type="qcurve" smooth="yes" name="inserted"/>
      <point x="119" y="265"/>
      <point x="98" y="216"/>
    </contour>
  </outline>
</glyph>
<glyph name="t" format="1">
  <advance width="324"/>
  <unicode hex="0074"/>
  <outline>
    <contour>
      <point x="120" y="619" type="line" name="dh01"/>
      <point x="183" y="619" type="line" name="dh02"/>
      <point x="183" y="375" type="line" name="sv01"/>
      <point x="289" y="375" type="line" name="sh01"/>
      <point x="289" y="314" type="line"/>
      <point x="183" y="314" type="line" name="sh02"/>
      <point x="183" y="59" type="line"/>
      <point x="261" y="59" type="line" name="sh03"/>
      <point x="261" y="0" type="line" name="ab01"/>
      <point x="120" y="0" type="line" name="sh04"/>
      <point x="120" y="314" type="line"/>
      <point x="35" y="314" type="line" name="sv02"/>
      <point x="35" y="375" type="line" name="sh05"/>
      <point x="120" y="375" type="line"/>
    </contour>
  </outline>
</glyph>
<glyph name="u" format="1">
  <advance width="554"/>
  <unicode hex="0075"/>
  <outline>
    <contour>
      <point x="35" y="375" type="line" name="at02"/>
      <point x="167" y="375" type="line" name="sh01"/>
      <point x="167" y="128" type="line"/>
      <point x="169" y="98"/>
      <point x="208" y="55"/>
      <point x="248" y="53" type="qcurve" name="sv01"/>
      <point x="276" y="53"/>
      <point x="328" y="72"/>
      <point x="347.5" y="89.5" type="qcurve" smooth="yes" name="inserted"/>
      <point x="367" y="107" name="fv01"/>
      <point x="391" y="154"/>
      <point x="391" y="182" type="qcurve"/>
      <point x="391" y="315" type="line" name="sh02"/>
      <point x="321" y="315" type="line" name="sh03"/>
      <point x="321" y="375" type="line" name="at01"/>
      <point x="453" y="375" type="line" name="dh02"/>
      <point x="453" y="53" type="line"/>
      <point x="519" y="53" type="line" name="sh04"/>
      <point x="519" y="0" type="line" name="ab02"/>
      <point x="393" y="0" type="line" name="sh05"/>
      <point x="392" y="52" type="line"/>
      <point x="394" y="97" type="line" name="iv01"/>
      <point x="374" y="49"/>
      <point x="285" y="-8"/>
      <point x="230" y="-8" type="qcurve" name="ab01"/>
      <point x="173" y="-8" name="fh01"/>
      <point x="107" y="54" name="fh02"/>
      <point x="105" y="104" type="qcurve"/>
      <point x="105" y="315" type="line" name="dh01"/>
      <point x="35" y="315" type="line" name="sh06"/>
    </contour>
  </outline>
</glyph>
<glyph name="w" format="1">
  <advance width="839"/>
  <unicode hex="0077"/>
  <outline>
    <contour>
      <point x="612" y="375" type="line" name="sv02"/>
      <point x="804" y="375" type="line"/>
      <point x="804" y="315" type="line" name="sh03"/>
      <point x="732" y="315" type="line" name="sh02"/>
      <point x="689" y="230"/>
      <point x="604" y="62"/>
      <point x="562" y="-23" type="qcurve" name="sh01"/>
      <point x="426" y="247" type="line" name="ih01"/>
      <point x="290" y="-23" type="line" name="ah01"/>
      <point x="247" y="62"/>
      <point x="162" y="230"/>
      <point x="119" y="315" type="qcurve" name="sh05"/>
      <point x="35" y="315" type="line" name="sh06"/>
      <point x="35" y="375" type="line" name="at01"/>
      <point x="228" y="375" type="line"/>
      <point x="228" y="315" type="line" name="sh08"/>
      <point x="181" y="315" type="line" name="sh07"/>
      <point x="210" y="258"/>
      <point x="266" y="143" name="fh01"/>
      <point x="290" y="86" type="qcurve" name="sh09"/>
      <point x="307" y="130" name="fh02"/>
      <point x="348" y="214" name="fh03"/>
      <point x="369" y="256" type="qcurve" name="iv01"/>
      <point x="369" y="315" type="line" name="sh04"/>
      <point x="311" y="315" type="line" name="sh10"/>
      <point x="311" y="375" type="line" name="sv01"/>
      <point x="515" y="375" type="line"/>
      <point x="515" y="315" type="line" name="sh12"/>
      <point x="453" y="315" type="line" name="sh11"/>
      <point x="482" y="258"/>
      <point x="538" y="143" name="mh01"/>
      <point x="562" y="86" type="qcurve" name="sh13"/>
      <point x="585" y="144"/>
      <point x="641" y="258" name="fh04"/>
      <point x="670" y="315" type="qcurve" name="sh14"/>
      <point x="612" y="315" type="line" name="sh15"/>
    </contour>
  </outline>
</glyph>
<glyph name="x" format="1">
  <advance width="515"/>
  <unicode hex="0078"/>
  <outline>
    <contour>
      <point x="35" y="375" type="line"/>
      <point x="243" y="375" type="line" name="at01"/>
      <point x="243" y="315" type="line" name="sh02"/>
      <point x="200" y="315" type="line" name="sh01"/>
      <point x="266" y="225" type="line" name="ih01"/>
      <point x="330" y="315" type="line" name="sh03"/>
      <point x="288" y="315" type="line" name="sh04"/>
      <point x="288" y="375" type="line" name="sv01"/>
      <point x="480" y="375" type="line"/>
      <point x="480" y="315" type="line" name="sh06"/>
      <point x="405" y="315" type="line" name="sh05"/>
      <point x="305" y="177" type="line" name="dh02"/>
      <point x="326" y="147"/>
      <point x="369" y="89"/>
      <point x="391" y="59" type="qcurve" name="sh07"/>
      <point x="480" y="59" type="line" name="sh08"/>
      <point x="480" y="0" type="line"/>
      <point x="272" y="0" type="line" name="sv02"/>
      <point x="272" y="59" type="line" name="sh10"/>
      <point x="313" y="59" type="line" name="sh09"/>
      <point x="296" y="82" name="fh01"/>
      <point x="266" y="124"/>
      <point x="250" y="146" type="qcurve" name="ih02"/>
      <point x="187" y="59" type="line" name="sh11"/>
      <point x="226" y="59" type="line"/>
      <point x="226" y="0" type="line"/>
      <point x="35" y="0" type="line" name="ab01"/>
      <point x="35" y="59" type="line" name="sh13"/>
      <point x="110" y="59" type="line" name="sh12"/>
      <point x="136" y="94"/>
      <point x="186" y="162"/>
      <point x="211" y="197" type="qcurve" name="dh01"/>
      <point x="189" y="227"/>
      <point x="146" y="286"/>
      <point x="125" y="315" type="qcurve" name="sh14"/>
      <point x="35" y="315" type="line" name="sh15"/>
    </contour>
  </outline>
</glyph>
<glyph name="z" format="1">
  <advance width="433"/>
  <unicode hex="007A"/>
  <outline>
    <contour>
      <point x="398" y="116" type="line" name="dh02"/>
      <point x="398" y="0" type="line" name="ab01"/>
      <point x="35" y="0" type="line"/>
      <point x="35" y="61" type="line" name="ih01"/>
      <point x="104" y="125" name="fv01"/>
      <point x="221" y="250"/>
      <point x="290" y="315" type="qcurve" name="sh01"/>
      <point x="47" y="315" type="line" name="sv02"/>
      <point x="47" y="410" type="line" name="dh01"/>
      <point x="103" y="410" type="line" name="sh02"/>
      <point x="103" y="375" type="line" name="at01"/>
      <point x="377" y="375" type="line"/>
      <point x="377" y="314" type="line" name="ih02"/>
      <point x="308" y="249"/>
      <point x="191" y="125" name="fh01"/>
      <point x="122" y="61" type="qcurve" name="sh03"/>
      <point x="342" y="61" type="line" name="sv01"/>
      <point x="342" y="116" type="line" name="sh04"/>
    </contour>
  </outline>
</glyph>
<glyph name="bar" format="1">
  <advance width="255"/>
  <unicode hex="007C"/>
  <outline>
    <contour>
      <point x="93" y="-232" type="line" name="dh01"/>
      <point x="93" y="700" type="line" name="at01"/>
      <point x="156" y="700" type="line"/>
      <point x="156" y="-232" type="line" name="dh02"/>
    </contour>
  </outline>
</glyph>
<glyph name="sterling" format="1">
  <advance width="574"/>
  <unicode hex="00A3"/>
  <outline>
    <contour>
      <point x="529" y="0" type="line"/>
      <point x="28" y="0" type="line" name="ab01"/>
      <point x="28" y="61" type="line" name="sh02"/>
      <point x="72" y="61" type="line"/>
      <point x="88" y="61"/>
      <point x="109" y="70"/>
      <point x="114.5" y="83.0" type="qcurve" smooth="yes" name="inserted"/>
      <point x="120" y="96"/>
      <point x="124" y="141"/>
      <point x="124" y="176" type="qcurve"/>
      <point x="124" y="284" type="line" name="sh01"/>
      <point x="59" y="284" type="line" name="sv01"/>
      <point x="59" y="345" type="line" name="sh03"/>
      <point x="124" y="345" type="line" name="dh01"/>
      <point x="124" y="500" type="line"/>
      <point x="124" y="569" name="fh01"/>
      <point x="232" y="634"/>
      <point x="326" y="634" type="qcurve" name="av01"/>
      <point x="393" y="634"/>
      <point x="470" y="577" name="fh02"/>
      <point x="490" y="537" type="qcurve" name="ih01"/>
      <point x="443" y="510" type="line" name="sv02"/>
      <point x="435" y="522"/>
      <point x="419" y="544"/>
      <point x="406.0" y="553.0" type="qcurve" smooth="yes" name="inserted"/>
      <point x="393" y="562" name="fh03"/>
      <point x="355" y="573"/>
      <point x="326" y="573" type="qcurve" name="sv03"/>
      <point x="253" y="573" name="fh04"/>
      <point x="187" y="533"/>
      <point x="187" y="486" type="qcurve"/>
      <point x="187" y="345" type="line" name="sh04"/>
      <point x="308" y="345" type="line" name="sh05"/>
      <point x="308" y="284" type="line"/>
      <point x="187" y="284" type="line" name="sh06"/>
      <point x="187" y="147" type="line"/>
      <point x="187" y="118"/>
      <point x="181" y="75"/>
      <point x="165" y="61" type="qcurve" name="sv04"/>
      <point x="466" y="61" type="line"/>
      <point x="466" y="161" type="line" name="sh07"/>
      <point x="529" y="161" type="line" name="dh02"/>
    </contour>
  </outline>
</glyph>
<glyph name="currency" format="1">
  <advance width="500"/>
  <unicode hex="00A4"/>
  <outline>
    <contour>
      <point x="158" y="360" type="qcurve" name="sh01"/>
      <point x="158" y="323"/>
      <point x="211" y="271"/>
      <point x="248" y="271" type="qcurve" name="sv01"/>
      <point x="285" y="271"/>
      <point x="338" y="323"/>
      <point x="338" y="360" type="qcurve" name="sh03"/>
      <point x="338" y="398"/>
      <point x="285" y="451"/>
      <point x="248" y="451" type="qcurve" name="sv03"/>
      <point x="211" y="451"/>
      <point x="158" y="398"/>
    </contour>
    <contour>
      <point x="95" y="361" type="qcurve" name="ah01"/>
      <point x="95" y="384"/>
      <point x="109" y="424" name="fh01"/>
      <point x="120" y="442" type="qcurve" name="fh02"/>
      <point x="112" y="449"/>
      <point x="100" y="462"/>
      <point x="92" y="470" type="qcurve"/>
      <point x="136" y="514" type="line"/>
      <point x="165" y="486" type="line" name="fh03"/>
      <point x="183" y="497" name="fh04"/>
      <point x="224" y="511"/>
      <point x="247" y="511" type="qcurve" name="sv02"/>
      <point x="269.5" y="511.0" name="inserted"/>
      <point x="311.0" y="498.5"/>
      <point x="330" y="486" type="qcurve" name="fh06"/>
      <point x="358" y="514" type="line"/>
      <point x="402" y="470" type="line"/>
      <point x="376" y="443" type="line" name="fh07"/>
      <point x="387" y="425" name="fh08"/>
      <point x="401" y="383"/>
      <point x="401" y="361" type="qcurve" name="sh02"/>
      <point x="401.0" y="338.0" name="inserted"/>
      <point x="387.5" y="296.0"/>
      <point x="374" y="277" type="qcurve" name="fh10"/>
      <point x="403" y="248" type="line"/>
      <point x="359" y="204" type="line"/>
      <point x="351" y="212"/>
      <point x="336" y="226" name="fh11"/>
      <point x="328" y="234" type="qcurve" name="fh12"/>
      <point x="310.5" y="222.0" name="inserted"/>
      <point x="270.0" y="210.0"/>
      <point x="247" y="210" type="qcurve" name="av01"/>
      <point x="224.0" y="210.0" name="inserted"/>
      <point x="183.5" y="221.5"/>
      <point x="166" y="233" type="qcurve" name="fh15"/>
      <point x="136" y="203" type="line"/>
      <point x="92" y="247" type="line"/>
      <point x="121" y="276" type="line" name="fh16"/>
      <point x="109" y="294" name="fh17"/>
      <point x="95" y="337"/>
    </contour>
  </outline>
</glyph>
<glyph name="macron" format="1">
  <advance width="399"/>
  <unicode hex="00AF"/>
  <outline>
    <contour>
      <point x="85" y="482" type="line" name="dh01"/>
      <point x="85" y="523" type="line" name="sv01"/>
      <point x="315" y="523" type="line"/>
      <point x="315" y="482" type="line" name="dh02"/>
    </contour>
  </outline>
</glyph>
<glyph name="plusminus" format="1">
  <advance width="524"/>
  <unicode hex="00B1"/>
  <outline>
    <contour>
      <point x="234" y="211" type="line" name="dh01"/>
      <point x="234" y="360" type="line" name="dv01"/>
      <point x="86" y="360" type="line"/>
      <point x="86" y="421" type="line" name="sh02"/>
      <point x="234" y="421" type="line" name="sh01"/>
      <point x="234" y="571" type="line" name="sv01"/>
      <point x="297" y="571" type="line" name="sh03"/>
      <point x="297" y="421" type="line" name="sv02"/>
      <point x="446" y="421" type="line" name="sh04"/>
      <point x="446" y="360" type="line"/>
      <point x="297" y="360" type="line" name="sv03"/>
      <point x="297" y="211" type="line" name="dh02"/>
    </contour>
    <contour>
      <point x="446" y="111" type="line"/>
      <point x="86" y="111" type="line" name="sv04"/>
      <point x="86" y="172" type="line" name="sh05"/>
      <point x="446" y="172" type="line" name="sh06"/>
    </contour>
  </outline>
</glyph>
<glyph name="twosuperior" format="1">
  <advance width="398"/>
  <unicode hex="00B2"/>
  <outline>
    <contour>
      <point x="178" y="405" type="qcurve" name="sh02"/>
      <point x="285" y="405" type="line" name="sv02"/>
      <point x="285" y="454" type="line" name="sh05"/>
      <point x="315" y="454" type="line" name="sh04"/>
      <point x="315" y="375" type="line" name="sv01"/>
      <point x="103" y="375" type="line" name="sh01"/>
      <point x="134" y="406"/>
      <point x="192" y="464"/>
      <point x="214.5" y="491.5" type="qcurve" smooth="yes" name="inserted"/>
      <point x="237" y="519" name="iv01"/>
      <point x="264" y="570"/>
      <point x="264" y="593" type="qcurve" name="dh02"/>
      <point x="264" y="615"/>
      <point x="251" y="644" name="fh01"/>
      <point x="241.5" y="653.0" type="qcurve" smooth="yes" name="inserted"/>
      <point x="232" y="662"/>
      <point x="208" y="670"/>
      <point x="198" y="670" type="qcurve" name="sv03"/>
      <point x="178" y="670"/>
      <point x="152" y="656" name="fh02"/>
      <point x="144.5" y="645.5" type="qcurve" smooth="yes" name="inserted"/>
      <point x="137" y="635"/>
      <point x="131" y="611"/>
      <point x="131" y="602" type="qcurve" name="sh06"/>
      <point x="131.0" y="586.0" name="inserted"/>
      <point x="140.5" y="559.5"/>
      <point x="150" y="549" type="qcurve" name="sh07"/>
      <point x="131" y="530" type="line" name="sv04"/>
      <point x="124" y="536"/>
      <point x="112" y="552"/>
      <point x="108.0" y="562.0" type="qcurve" smooth="yes" name="inserted"/>
      <point x="104" y="572"/>
      <point x="100" y="592"/>
      <point x="100" y="602" type="qcurve" name="dh01"/>
      <point x="100" y="621"/>
      <point x="113" y="657" name="fh03"/>
      <point x="125.0" y="670.5" type="qcurve" smooth="yes" name="inserted"/>
      <point x="137" y="684" name="fh04"/>
      <point x="174" y="700"/>
      <point x="198" y="700" type="qcurve" name="at01"/>
      <point x="220" y="700"/>
      <point x="256" y="684"/>
      <point x="268.5" y="670.5" type="qcurve" smooth="yes" name="inserted"/>
      <point x="281" y="657" name="fh05"/>
      <point x="295" y="620"/>
      <point x="295" y="599" type="qcurve" name="sh03"/>
      <point x="295" y="574"/>
      <point x="275" y="524" name="fh06"/>
      <point x="258.0" y="500.0" type="qcurve" smooth="yes" name="inserted"/>
      <point x="241" y="476" name="iv02"/>
      <point x="199" y="429"/>
    </contour>
  </outline>
</glyph>
<glyph name="acute" format="1">
  <advance width="257"/>
  <unicode hex="00B4"/>
  <outline>
    <contour>
      <point x="100" y="479" type="line" name="sh01"/>
      <point x="123" y="512"/>
      <point x="167" y="579"/>
      <point x="190" y="612" type="qcurve" name="sh02"/>
      <point x="254" y="612" type="line" name="ah01"/>
      <point x="227" y="579"/>
      <point x="173" y="512"/>
      <point x="146" y="479" type="qcurve" name="sh03"/>
    </contour>
  </outline>
</glyph>
<glyph name="mu" format="1">
  <advance width="545"/>
  <unicode hex="00B5"/>
  <outline>
    <contour>
      <point x="308" y="375" type="line" name="at01"/>
      <point x="440" y="375" type="line" name="dh02"/>
      <point x="440" y="53" type="line"/>
      <point x="507" y="53" type="line" name="sh01"/>
      <point x="507" y="0" type="line" name="ab02"/>
      <point x="381" y="0" type="line" name="sh03"/>
      <point x="380" y="52" type="line"/>
      <point x="381" y="97" type="line" name="iv01"/>
      <point x="361" y="49"/>
      <point x="272" y="-8"/>
      <point x="218" y="-8" type="qcurve" name="ab01"/>
      <point x="197.5" y="-8.0" name="inserted"/>
      <point x="166.0" y="2.5"/>
      <point x="155" y="13" type="qcurve" name="sh05"/>
      <point x="155" y="-201" type="line"/>
      <point x="92" y="-201" type="line" name="av01"/>
      <point x="92" y="315" type="line" name="dh01"/>
      <point x="23" y="315" type="line" name="sh06"/>
      <point x="23" y="375" type="line" name="at02"/>
      <point x="155" y="375" type="line" name="sh04"/>
      <point x="155" y="128" type="line"/>
      <point x="157" y="98"/>
      <point x="196" y="55"/>
      <point x="236" y="53" type="qcurve" name="sv01"/>
      <point x="264" y="53"/>
      <point x="316" y="72"/>
      <point x="335.5" y="89.5" type="qcurve" smooth="yes" name="inserted"/>
      <point x="355" y="107"/>
      <point x="378" y="154"/>
      <point x="378" y="182" type="qcurve"/>
      <point x="378" y="315" type="line" name="sh02"/>
      <point x="308" y="315" type="line" name="sh07"/>
    </contour>
  </outline>
</glyph>
<glyph name="onequarter" format="1">
  <advance width="968"/>
  <unicode hex="00BC"/>
  <outline>
    <contour>
      <point x="268" y="-19" type="line" name="ah02"/>
      <point x="338" y="171"/>
      <point x="476" y="546"/>
      <point x="546" y="736" type="qcurve" name="sh02"/>
      <point x="609" y="736" type="line" name="sh01"/>
      <point x="539" y="546" name="fh01"/>
      <point x="401" y="171"/>
      <point x="331" y="-19" type="qcurve" name="sh03"/>
    </contour>
    <contour>
      <point x="670" y="44" type="line" name="sh04"/>
      <point x="727" y="44" type="line"/>
      <point x="727" y="136" type="line" name="ah03"/>
      <point x="501" y="136" type="line" name="sh05"/>
      <point x="773" y="490" type="line" name="sv01"/>
      <point x="773" y="182" type="line" name="sh07"/>
      <point x="845" y="182" type="line"/>
      <point x="845" y="136" type="line" name="sh08"/>
      <point x="773" y="136" type="line" name="sh06"/>
      <point x="773" y="44" type="line" name="sv02"/>
      <point x="835" y="44" type="line" name="sh09"/>
      <point x="835" y="0" type="line"/>
      <point x="670" y="0" type="line" name="ab01"/>
    </contour>
    <contour>
      <point x="727" y="353" type="line" name="iv01"/>
      <point x="596" y="182" type="line" name="sh10"/>
      <point x="727" y="182" type="line" name="sh11"/>
    </contour>
    <contour>
      <point x="128" y="276" type="line" name="sh12"/>
      <point x="184" y="276" type="line" name="ah01"/>
      <point x="184" y="652" type="line"/>
      <point x="126" y="652" type="line" name="sh13"/>
      <point x="126" y="695" type="line" name="av01"/>
      <point x="228" y="695" type="line"/>
      <point x="228" y="276" type="line" name="sh14"/>
      <point x="285" y="276" type="line" name="sh15"/>
      <point x="285" y="234" type="line"/>
      <point x="128" y="234" type="line" name="sv03"/>
    </contour>
  </outline>
</glyph>
<glyph name="onehalf" format="1">
  <advance width="1069"/>
  <unicode hex="00BD"/>
  <outline>
    <contour>
      <point x="123" y="276" type="line" name="sh01"/>
      <point x="179" y="276" type="line" name="ah01"/>
      <point x="179" y="652" type="line"/>
      <point x="121" y="652" type="line" name="sh02"/>
      <point x="121" y="695" type="line" name="av01"/>
      <point x="223" y="695" type="line"/>
      <point x="223" y="276" type="line" name="sh03"/>
      <point x="280" y="276" type="line" name="sh04"/>
      <point x="280" y="234" type="line"/>
      <point x="123" y="234" type="line" name="sv01"/>
    </contour>
    <contour>
      <point x="667" y="43" type="qcurve" name="sh06"/>
      <point x="822" y="43" type="line"/>
      <point x="822" y="113" type="line" name="sh09"/>
      <point x="864" y="113" type="line" name="sh08"/>
      <point x="864" y="0" type="line"/>
      <point x="561" y="0" type="line" name="sh05"/>
      <point x="605" y="44"/>
      <point x="688" y="128"/>
      <point x="720.0" y="167.0" type="qcurve" smooth="yes" name="inserted"/>
      <point x="752" y="206" name="fh01"/>
      <point x="791" y="280"/>
      <point x="791" y="313" type="qcurve" name="sh10"/>
      <point x="791" y="344"/>
      <point x="773" y="386" name="fh02"/>
      <point x="759.0" y="399.0" type="qcurve" smooth="yes" name="inserted"/>
      <point x="745" y="412"/>
      <point x="711" y="423"/>
      <point x="696" y="423" type="qcurve" name="sv03"/>
      <point x="667" y="423"/>
      <point x="630" y="403" name="fh03"/>
      <point x="619.5" y="388.0" type="qcurve" smooth="yes" name="inserted"/>
      <point x="609" y="373" name="fh04"/>
      <point x="600" y="339"/>
      <point x="600" y="325" type="qcurve" name="sh11"/>
      <point x="600.0" y="302.0" name="inserted"/>
      <point x="614.0" y="264.0"/>
      <point x="628" y="249" type="qcurve" name="sh12"/>
      <point x="601" y="223" type="line" name="sv04"/>
      <point x="590" y="230"/>
      <point x="573" y="254"/>
      <point x="567.5" y="268.0" type="qcurve" smooth="yes" name="inserted"/>
      <point x="562" y="282"/>
      <point x="556" y="312"/>
      <point x="556" y="325" type="qcurve" name="ah03"/>
      <point x="556" y="354"/>
      <point x="574" y="405" name="fh05"/>
      <point x="591.5" y="424.5" type="qcurve" smooth="yes" name="inserted"/>
      <point x="609" y="444" name="fh06"/>
      <point x="662" y="466"/>
      <point x="696" y="466" type="qcurve" name="sv02"/>
      <point x="728" y="466"/>
      <point x="779" y="444" name="fh07"/>
      <point x="797.5" y="424.0" type="qcurve" smooth="yes" name="inserted"/>
      <point x="816" y="404" name="fh08"/>
      <point x="836" y="352"/>
      <point x="836" y="322" type="qcurve" name="sh07"/>
      <point x="836" y="285"/>
      <point x="806" y="214"/>
      <point x="782.5" y="179.5" type="qcurve" smooth="yes" name="inserted"/>
      <point x="759" y="145" name="fh09"/>
      <point x="698" y="77" name="fh10"/>
    </contour>
    <contour>
      <point x="268" y="-19" type="line" name="ah02"/>
      <point x="338" y="171"/>
      <point x="476" y="546"/>
      <point x="546" y="736" type="qcurve" name="sh14"/>
      <point x="609" y="736" type="line" name="sh13"/>
      <point x="539" y="546" name="fh11"/>
      <point x="401" y="171"/>
      <point x="331" y="-19" type="qcurve" name="sh15"/>
    </contour>
  </outline>
</glyph>
<glyph name="threequarters" format="1">
  <advance width="1276"/>
  <unicode hex="00BE"/>
  <outline>
    <contour>
      <point x="214" y="465" type="qcurve" name="sh04"/>
      <point x="339" y="660" type="line" name="sh03"/>
      <point x="215" y="660" type="line" name="sv03"/>
      <point x="215" y="619" type="line"/>
      <point x="170" y="619" type="line" name="ah01"/>
      <point x="170" y="707" type="line" name="at01"/>
      <point x="421" y="707" type="line" name="sh02"/>
      <point x="298" y="520" type="line" name="sh05"/>
      <point x="326" y="514" name="fh01"/>
      <point x="374" y="486" name="fh02"/>
      <point x="392.0" y="465.5" type="qcurve" smooth="yes" name="inserted"/>
      <point x="410" y="445" name="fh03"/>
      <point x="430" y="394"/>
      <point x="430" y="363" type="qcurve" name="sh01"/>
      <point x="430" y="329"/>
      <point x="404" y="270" name="fh04"/>
      <point x="381.5" y="247.5" type="qcurve" smooth="yes" name="inserted"/>
      <point x="359" y="225" name="fh05"/>
      <point x="299" y="199"/>
      <point x="265" y="199" type="qcurve" name="sv01"/>
      <point x="228" y="199"/>
      <point x="166" y="227"/>
      <point x="143" y="252" type="qcurve" name="sh06"/>
      <point x="179" y="286" type="line" name="sv04"/>
      <point x="194" y="268"/>
      <point x="238" y="246"/>
      <point x="264" y="246" type="qcurve" name="sv05"/>
      <point x="288" y="246"/>
      <point x="331" y="265"/>
      <point x="347.0" y="281.0" type="qcurve" smooth="yes" name="inserted"/>
      <point x="363" y="297"/>
      <point x="382" y="340"/>
      <point x="382" y="363" type="qcurve" name="sh07"/>
      <point x="382" y="387"/>
      <point x="363" y="430" name="fh06"/>
      <point x="347.0" y="445.5" type="qcurve" smooth="yes" name="inserted"/>
      <point x="331" y="461" name="fh07"/>
      <point x="288" y="479"/>
      <point x="264" y="479" type="qcurve" name="sv02"/>
      <point x="251.0" y="479.0" name="inserted"/>
      <point x="226.0" y="472.0"/>
    </contour>
    <contour>
      <point x="450" y="-19" type="line" name="ah02"/>
      <point x="520" y="171"/>
      <point x="658" y="546"/>
      <point x="728" y="736" type="qcurve" name="sh09"/>
      <point x="791" y="736" type="line" name="sh08"/>
      <point x="721" y="546" name="fh08"/>
      <point x="583" y="171"/>
      <point x="513" y="-19" type="qcurve" name="sh10"/>
    </contour>
    <contour>
      <point x="869" y="44" type="line" name="sh11"/>
      <point x="926" y="44" type="line"/>
      <point x="926" y="136" type="line" name="ah03"/>
      <point x="701" y="136" type="line" name="sh12"/>
      <point x="973" y="490" type="line" name="sv06"/>
      <point x="973" y="182" type="line" name="sh14"/>
      <point x="1045" y="182" type="line" name="sh15"/>
      <point x="1045" y="136" type="line"/>
      <point x="973" y="136" type="line" name="sh13"/>
      <point x="973" y="44" type="line" name="sv07"/>
      <point x="1034" y="44" type="line" name="sh16"/>
      <point x="1034" y="0" type="line"/>
      <point x="869" y="0" type="line" name="ab01"/>
    </contour>
    <contour>
      <point x="926" y="353" type="line" name="iv01"/>
      <point x="795" y="182" type="line" name="sh17"/>
      <point x="926" y="182" type="line" name="sh18"/>
    </contour>
  </outline>
</glyph>
<glyph name="multiply" format="1">
  <advance width="500"/>
  <unicode hex="00D7"/>
  <outline>
    <contour>
      <point x="370" y="0" type="line" name="sv01"/>
      <point x="344" y="26"/>
      <point x="290" y="79"/>
      <point x="264" y="105" type="qcurve" name="ih03"/>
      <point x="238" y="79"/>
      <point x="186" y="27"/>
      <point x="160" y="1" type="qcurve" name="ab01"/>
      <point x="149" y="12"/>
      <point x="127" y="33"/>
      <point x="116" y="44" type="qcurve" name="dh01"/>
      <point x="221" y="149" type="line" name="ih02"/>
      <point x="116" y="255" type="line" name="sh01"/>
      <point x="160" y="299" type="line" name="sv02"/>
      <point x="265" y="193" type="line" name="ih04"/>
      <point x="292" y="220"/>
      <point x="345" y="272"/>
      <point x="371" y="299" type="qcurve" name="sv03"/>
      <point x="382" y="288"/>
      <point x="403" y="266"/>
      <point x="414" y="255" type="qcurve" name="sh02"/>
      <point x="309" y="150" type="line" name="ih01"/>
      <point x="415" y="44" type="line" name="dh02"/>
    </contour>
  </outline>
</glyph>
<glyph name="Oslash" format="1">
  <advance width="786"/>
  <unicode hex="00D8"/>
  <outline>
    <contour>
      <point x="97" y="349" type="qcurve" name="sh01"/>
      <point x="97" y="289"/>
      <point x="140" y="185" name="fh01"/>
      <point x="178" y="145" type="qcurve" name="sh02"/>
      <point x="275" y="258" name="fh02"/>
      <point x="464" y="481" name="fh03"/>
      <point x="560" y="594" type="qcurve" name="sh03"/>
      <point x="524" y="620" name="fh04"/>
      <point x="439" y="648"/>
      <point x="392" y="648" type="qcurve" name="sv02"/>
      <point x="331" y="648"/>
      <point x="224" y="601" name="fh05"/>
      <point x="184.0" y="560.0" type="qcurve" smooth="yes" name="inserted"/>
      <point x="144" y="519" name="fh06"/>
      <point x="97" y="410"/>
    </contour>
    <contour>
      <point x="391" y="51" type="qcurve" name="sv01"/>
      <point x="452" y="51"/>
      <point x="561" y="98" name="fh07"/>
      <point x="601.5" y="138.5" type="qcurve" smooth="yes" name="inserted"/>
      <point x="642" y="179" name="fh08"/>
      <point x="689" y="287" name="fh09"/>
      <point x="689" y="349" type="qcurve" name="sh04"/>
      <point x="689" y="409"/>
      <point x="642" y="516" name="fh10"/>
      <point x="603" y="556" type="qcurve" name="sh05"/>
      <point x="507" y="443"/>
      <point x="318" y="220" name="fh11"/>
      <point x="221" y="107" type="qcurve" name="sh06"/>
      <point x="258" y="81" name="fh12"/>
      <point x="343" y="51"/>
    </contour>
    <contour>
      <point x="35" y="349" type="qcurve" name="dh01"/>
      <point x="35" y="423"/>
      <point x="91" y="554" name="fh13"/>
      <point x="139.5" y="602.5" type="qcurve" smooth="yes" name="inserted"/>
      <point x="188" y="651"/>
      <point x="318" y="708"/>
      <point x="392" y="708" type="qcurve" name="at01"/>
      <point x="451" y="708"/>
      <point x="556" y="673" name="fh14"/>
      <point x="600" y="641" type="qcurve" name="ih02"/>
      <point x="616" y="660"/>
      <point x="648" y="697"/>
      <point x="664" y="716" type="qcurve" name="sv03"/>
      <point x="675" y="706"/>
      <point x="696" y="687"/>
      <point x="707" y="678" type="qcurve" name="sh07"/>
      <point x="691" y="659"/>
      <point x="660" y="623"/>
      <point x="644" y="604" type="qcurve" name="ih03"/>
      <point x="694" y="555" name="fh15"/>
      <point x="751" y="424"/>
      <point x="751" y="349" type="qcurve" name="dh02"/>
      <point x="751" y="275"/>
      <point x="694" y="145" name="fv01"/>
      <point x="645.5" y="96.5" type="qcurve" smooth="yes" name="inserted"/>
      <point x="597" y="48"/>
      <point x="466" y="-8"/>
      <point x="392" y="-8" type="qcurve" name="ab01"/>
      <point x="332" y="-8"/>
      <point x="226" y="28" name="fh16"/>
      <point x="182" y="60" type="qcurve" name="ih04"/>
      <point x="166" y="42"/>
      <point x="135" y="4"/>
      <point x="119" y="-14" type="qcurve" name="sv04"/>
      <point x="108" y="-5"/>
      <point x="86" y="14"/>
      <point x="75" y="24" type="qcurve" name="sh08"/>
      <point x="92" y="42"/>
      <point x="122" y="79"/>
      <point x="138" y="98" type="qcurve" name="ih01"/>
      <point x="90" y="146" name="fh17"/>
      <point x="35" y="275"/>
    </contour>
  </outline>
</glyph>
<glyph name="ae" format="1">
  <advance width="603"/>
  <unicode hex="00E6"/>
  <outline>
    <contour>
      <point x="350" y="242" type="qcurve"/>
      <point x="350" y="211" type="line" name="sh01"/>
      <point x="385" y="225"/>
      <point x="453" y="250" name="fv01"/>
      <point x="488" y="264" type="qcurve" name="sh04"/>
      <point x="473" y="290" name="fh01"/>
      <point x="424" y="321" name="fh02"/>
      <point x="394" y="321" type="qcurve" name="sv01"/>
      <point x="379.0" y="321.0" name="inserted"/>
      <point x="350.5" y="315.5"/>
      <point x="337" y="310" type="qcurve"/>
      <point x="345" y="298"/>
      <point x="350" y="264"/>
    </contour>
    <contour>
      <point x="287" y="147" type="line" name="sh02"/>
      <point x="220" y="147" type="line"/>
      <point x="205" y="147"/>
      <point x="163" y="146"/>
      <point x="144.0" y="142.0" type="qcurve" smooth="yes" name="inserted"/>
      <point x="125" y="138"/>
      <point x="98" y="120"/>
      <point x="98" y="103" type="qcurve" name="sh05"/>
      <point x="98" y="87"/>
      <point x="116" y="67"/>
      <point x="129.5" y="61.0" type="qcurve" smooth="yes" name="inserted"/>
      <point x="143" y="55"/>
      <point x="177" y="51"/>
      <point x="194" y="51" type="qcurve" name="sv02"/>
      <point x="209" y="51"/>
      <point x="242" y="54"/>
      <point x="255.5" y="60.0" type="qcurve" smooth="yes" name="inserted"/>
      <point x="269" y="66"/>
      <point x="287" y="88"/>
      <point x="287" y="107" type="qcurve"/>
    </contour>
    <contour>
      <point x="90" y="291" type="qcurve" name="sv03"/>
      <point x="81" y="302"/>
      <point x="64" y="321"/>
      <point x="55" y="332" type="qcurve" name="sh06"/>
      <point x="66" y="342"/>
      <point x="99" y="360"/>
      <point x="118.0" y="367.0" type="qcurve" smooth="yes" name="inserted"/>
      <point x="137" y="374"/>
      <point x="177" y="382"/>
      <point x="195" y="382" type="qcurve" name="at01"/>
      <point x="233.5" y="382.0" name="inserted"/>
      <point x="288.5" y="372.0"/>
      <point x="305" y="362" type="qcurve" name="ih01"/>
      <point x="326.0" y="372.0" name="inserted"/>
      <point x="370.5" y="382.0"/>
      <point x="394" y="382" type="qcurve" name="at02"/>
      <point x="456" y="382"/>
      <point x="549" y="296" name="fh05"/>
      <point x="568" y="229" type="qcurve" name="sh03"/>
      <point x="514" y="208"/>
      <point x="404" y="167"/>
      <point x="350" y="146" type="qcurve" name="sv04"/>
      <point x="350" y="129" type="line" name="dh02"/>
      <point x="350" y="108"/>
      <point x="343" y="76"/>
      <point x="334" y="63" type="qcurve"/>
      <point x="347.5" y="57.0" name="inserted"/>
      <point x="377.5" y="51.0"/>
      <point x="394" y="51" type="qcurve" name="sv05"/>
      <point x="421" y="51"/>
      <point x="468" y="72"/>
      <point x="485" y="89" type="qcurve" name="sv06"/>
      <point x="494" y="77"/>
      <point x="513" y="54"/>
      <point x="523" y="43" type="qcurve" name="ih02"/>
      <point x="497" y="19"/>
      <point x="432" y="-9"/>
      <point x="394" y="-9" type="qcurve" name="ab02"/>
      <point x="369.0" y="-9.0" name="inserted"/>
      <point x="322.0" y="2.0"/>
      <point x="300" y="13" type="qcurve" name="ih03"/>
      <point x="281.5" y="1.5" name="inserted"/>
      <point x="228.5" y="-10.0"/>
      <point x="194" y="-10" type="qcurve" name="ab01"/>
      <point x="158" y="-10"/>
      <point x="100" y="1"/>
      <point x="79.0" y="14.5" type="qcurve" smooth="yes" name="inserted"/>
      <point x="58" y="28" name="fh07"/>
      <point x="35" y="72"/>
      <point x="35" y="106" type="qcurve" name="dh01"/>
      <point x="35" y="136"/>
      <point x="60" y="176"/>
      <point x="80.5" y="188.5" type="qcurve" smooth="yes" name="inserted"/>
      <point x="101" y="201" name="fh08"/>
      <point x="153" y="211"/>
      <point x="181" y="211" type="qcurve"/>
      <point x="287" y="211" type="line" name="sh07"/>
      <point x="287" y="244" type="line"/>
      <point x="287" y="263"/>
      <point x="280" y="292"/>
      <point x="270.5" y="302.0" type="qcurve" smooth="yes" name="inserted"/>
      <point x="261" y="312"/>
      <point x="224" y="321"/>
      <point x="194" y="321" type="qcurve" name="sv07"/>
      <point x="181" y="321"/>
      <point x="151" y="316"/>
      <point x="136.5" y="311.5" type="qcurve" smooth="yes" name="inserted"/>
      <point x="122" y="307"/>
      <point x="97" y="297"/>
    </contour>
  </outline>
</glyph>
<glyph name="iacute" format="1">
  <advance width="278"/>
  <unicode hex="00ED"/>
  <outline>
    <contour>
      <point x="35" y="59" type="line" name="sh01"/>
      <point x="109" y="59" type="line" name="dh01"/>
      <point x="109" y="315" type="line"/>
      <point x="35" y="315" type="line" name="sh02"/>
      <point x="35" y="375" type="line" name="at01"/>
      <point x="171" y="375" type="line"/>
      <point x="171" y="59" type="line" name="dh02"/>
      <point x="243" y="59" type="line" name="sh03"/>
      <point x="243" y="0" type="line"/>
      <point x="35" y="0" type="line" name="ab01"/>
    </contour>
    <contour>
      <point x="118" y="479" type="line" name="sh04"/>
      <point x="141" y="512"/>
      <point x="185" y="579"/>
      <point x="208" y="612" type="qcurve" name="sh05"/>
      <point x="272" y="612" type="line" name="ah01"/>
      <point x="245" y="579"/>
      <point x="191" y="512"/>
      <point x="164" y="479" type="qcurve" name="sh06"/>
    </contour>
  </outline>
</glyph>
<glyph name="icircumflex" format="1">
  <advance width="278"/>
  <unicode hex="00EE"/>
  <outline>
    <contour>
      <point x="35" y="59" type="line" name="sh01"/>
      <point x="109" y="59" type="line" name="dh01"/>
      <point x="109" y="315" type="line"/>
      <point x="35" y="315" type="line" name="sh02"/>
      <point x="35" y="375" type="line" name="at01"/>
      <point x="171" y="375" type="line"/>
      <point x="171" y="59" type="line" name="dh02"/>
      <point x="243" y="59" type="line" name="sh03"/>
      <point x="243" y="0" type="line"/>
      <point x="35" y="0" type="line" name="ab01"/>
    </contour>
    <contour>
      <point x="140" y="660" type="qcurve" name="sv02"/>
      <point x="170" y="615"/>
      <point x="230" y="524"/>
      <point x="260" y="479" type="qcurve" name="dh04"/>
      <point x="214" y="479" type="line" name="sh04"/>
      <point x="195" y="503"/>
      <point x="158" y="551"/>
      <point x="140" y="576" type="qcurve" name="sv01"/>
      <point x="121" y="551"/>
      <point x="85" y="503"/>
      <point x="66" y="479" type="qcurve" name="sh05"/>
      <point x="20" y="479" type="line" name="dh03"/>
      <point x="50" y="524"/>
      <point x="110" y="615"/>
    </contour>
  </outline>
</glyph>
<glyph name="eth" format="1">
  <advance width="467"/>
  <unicode hex="00F0"/>
  <outline>
    <contour>
      <point x="98" y="188" type="qcurve" name="sh01"/>
      <point x="98" y="159"/>
      <point x="120" y="110" name="fh01"/>
      <point x="138.5" y="92.0" type="qcurve" smooth="yes" name="inserted"/>
      <point x="157" y="74" name="fh02"/>
      <point x="207" y="54"/>
      <point x="236" y="55" type="qcurve" name="sv01"/>
      <point x="265" y="55"/>
      <point x="315" y="77" name="fh03"/>
      <point x="333.0" y="95.5" type="qcurve" smooth="yes" name="inserted"/>
      <point x="351" y="114" name="fh04"/>
      <point x="370" y="164"/>
      <point x="370" y="192" type="qcurve" name="sh02"/>
      <point x="369" y="221"/>
      <point x="348" y="270" name="fh05"/>
      <point x="329.5" y="288.0" type="qcurve" smooth="yes" name="inserted"/>
      <point x="311" y="306" name="fh06"/>
      <point x="261" y="325"/>
      <point x="232" y="325" type="qcurve" name="sv02"/>
      <point x="202" y="324"/>
      <point x="153" y="303" name="fh07"/>
      <point x="135.0" y="284.5" type="qcurve" smooth="yes" name="inserted"/>
      <point x="117" y="266"/>
      <point x="98" y="216"/>
    </contour>
    <contour>
      <point x="118" y="536" type="qcurve" name="ih01"/>
      <point x="134" y="553"/>
      <point x="165" y="585"/>
      <point x="180" y="602" type="qcurve" name="ih03"/>
      <point x="158" y="627" name="fh08"/>
      <point x="112" y="673"/>
      <point x="88" y="693" type="qcurve" name="ih04"/>
      <point x="99" y="704"/>
      <point x="121" y="724"/>
      <point x="132" y="734" type="qcurve" name="av01"/>
      <point x="156" y="716" name="fh09"/>
      <point x="202" y="673" name="fh10"/>
      <point x="224" y="650" type="qcurve" name="ih05"/>
      <point x="238" y="664"/>
      <point x="263" y="693"/>
      <point x="277" y="708" type="qcurve" name="iv02"/>
      <point x="288" y="698"/>
      <point x="309" y="679"/>
      <point x="320" y="670" type="qcurve" name="ih02"/>
      <point x="305" y="653"/>
      <point x="275" y="622"/>
      <point x="261" y="605" type="qcurve" name="ih06"/>
      <point x="295" y="562" name="fh11"/>
      <point x="357" y="461" name="fh12"/>
      <point x="380.5" y="407.0" type="qcurve" smooth="yes" name="inserted"/>
      <point x="404" y="353" name="fh13"/>
      <point x="432" y="245"/>
      <point x="432" y="194" type="qcurve" name="dh02"/>
      <point x="433" y="153"/>
      <point x="404" y="82"/>
      <point x="377.5" y="55.0" type="qcurve" smooth="yes" name="inserted"/>
      <point x="351" y="28"/>
      <point x="280" y="-5"/>
      <point x="238" y="-6" type="qcurve" name="ab01"/>
      <point x="197" y="-7"/>
      <point x="124" y="23"/>
      <point x="96.5" y="49.0" type="qcurve" smooth="yes" name="inserted"/>
      <point x="69" y="75"/>
      <point x="36" y="145"/>
      <point x="35" y="186" type="qcurve" name="dh01"/>
      <point x="34" y="226"/>
      <point x="64" y="298"/>
      <point x="90.5" y="325.0" type="qcurve" smooth="yes" name="inserted"/>
      <point x="117" y="352"/>
      <point x="189" y="384"/>
      <point x="230" y="385" type="qcurve" name="at01"/>
      <point x="256" y="386"/>
      <point x="305" y="368"/>
      <point x="323" y="353" type="qcurve" name="ih07"/>
      <point x="310" y="398" name="fh14"/>
      <point x="258" y="502" name="fh15"/>
      <point x="216" y="556" type="qcurve" name="ih08"/>
      <point x="202" y="541"/>
      <point x="175" y="511"/>
      <point x="161" y="496" type="qcurve" name="iv01"/>
      <point x="150" y="507"/>
      <point x="129" y="525"/>
    </contour>
  </outline>
</glyph>
<glyph name="divide" format="1">
  <advance width="501"/>
  <unicode hex="00F7"/>
  <outline>
    <contour>
      <point x="428" y="207" type="line" name="dv01"/>
      <point x="68" y="207" type="line"/>
      <point x="68" y="268" type="line" name="sh01"/>
      <point x="428" y="268" type="line" name="sh02"/>
    </contour>
    <contour>
      <point x="209" y="363" type="qcurve" name="dh01"/>
      <point x="209" y="382"/>
      <point x="234" y="406"/>
      <point x="251" y="406" type="qcurve" name="sv02"/>
      <point x="267" y="406"/>
      <point x="293" y="382"/>
      <point x="293" y="363" type="qcurve" name="dh02"/>
      <point x="293" y="344"/>
      <point x="267" y="321"/>
      <point x="251" y="321" type="qcurve" name="sv01"/>
      <point x="234" y="321"/>
      <point x="209" y="344"/>
    </contour>
    <contour>
      <point x="209" y="113" type="qcurve" name="sh03"/>
      <point x="209" y="132"/>
      <point x="234" y="156"/>
      <point x="251" y="156" type="qcurve" name="sv03"/>
      <point x="267" y="156"/>
      <point x="293" y="132"/>
      <point x="293" y="113" type="qcurve" name="sh04"/>
      <point x="293" y="94"/>
      <point x="267" y="71"/>
      <point x="251" y="71" type="qcurve" name="sv04"/>
      <point x="234" y="71"/>
      <point x="209" y="94"/>
    </contour>
  </outline>
</glyph>
<glyph name="oslash" format="1">
  <advance width="467"/>
  <unicode hex="00F8"/>
  <outline>
    <contour>
      <point x="97" y="188" type="qcurve" name="sh01"/>
      <point x="97" y="164"/>
      <point x="112" y="122"/>
      <point x="125" y="105" type="qcurve" name="ih01"/>
      <point x="169" y="156"/>
      <point x="253" y="256"/>
      <point x="297" y="307" type="qcurve" name="ih02"/>
      <point x="282.0" y="315.0" name="inserted"/>
      <point x="250.0" y="323.0"/>
      <point x="233" y="323" type="qcurve" name="sv02"/>
      <point x="204" y="323"/>
      <point x="154" y="302" name="fv01"/>
      <point x="136.0" y="284.0" type="qcurve" smooth="yes" name="inserted"/>
      <point x="118" y="266" name="fh01"/>
      <point x="97" y="216"/>
    </contour>
    <contour>
      <point x="233" y="53" type="qcurve" name="sv01"/>
      <point x="262" y="53"/>
      <point x="312" y="74" name="fh02"/>
      <point x="330.0" y="92.0" type="qcurve" smooth="yes" name="inserted"/>
      <point x="348" y="110" name="fh03"/>
      <point x="369" y="159"/>
      <point x="369" y="188" type="qcurve" name="sh02"/>
      <point x="369" y="215"/>
      <point x="350" y="262"/>
      <point x="333" y="279" type="qcurve" name="ih03"/>
      <point x="289" y="228"/>
      <point x="203" y="126"/>
      <point x="159" y="74" type="qcurve" name="ih04"/>
      <point x="175" y="64"/>
      <point x="212" y="53"/>
    </contour>
    <contour>
      <point x="35" y="188" type="qcurve" name="dh01"/>
      <point x="35" y="228"/>
      <point x="66" y="300"/>
      <point x="93.0" y="326.5" type="qcurve" smooth="yes" name="inserted"/>
      <point x="120" y="353"/>
      <point x="192" y="384"/>
      <point x="233" y="384" type="qcurve" name="at01"/>
      <point x="262.0" y="384.0" name="inserted"/>
      <point x="314.5" y="369.0"/>
      <point x="338" y="354" type="qcurve" name="ih05"/>
      <point x="346" y="365" name="fh04"/>
      <point x="364" y="385"/>
      <point x="373" y="396" type="qcurve"/>
      <point x="381" y="388"/>
      <point x="399" y="373"/>
      <point x="407" y="365" type="qcurve" name="sh03"/>
      <point x="374" y="326" type="line" name="ih06"/>
      <point x="401" y="300"/>
      <point x="432" y="229"/>
      <point x="432" y="188" type="qcurve" name="dh02"/>
      <point x="432" y="147"/>
      <point x="401" y="76"/>
      <point x="374.5" y="49.5" type="qcurve" smooth="yes" name="inserted"/>
      <point x="348" y="23"/>
      <point x="275" y="-8"/>
      <point x="233" y="-8" type="qcurve" name="ab01"/>
      <point x="201.0" y="-8.0" name="inserted"/>
      <point x="144.0" y="10.0"/>
      <point x="119" y="28" type="qcurve" name="ih07"/>
      <point x="108" y="16"/>
      <point x="89" y="-9"/>
      <point x="78" y="-21" type="qcurve"/>
      <point x="70" y="-13"/>
      <point x="51" y="0"/>
      <point x="43" y="8" type="qcurve" name="sh04"/>
      <point x="54" y="21"/>
      <point x="74" y="45"/>
      <point x="85" y="57" type="qcurve" name="ih08"/>
      <point x="61" y="83"/>
      <point x="35" y="150"/>
    </contour>
  </outline>
</glyph>
<glyph name="emdash" format="1">
  <advance width="700"/>
  <unicode hex="2014"/>
  <outline>
    <contour>
      <point x="99" y="175" type="line" name="dh01"/>
      <point x="99" y="236" type="line" name="dv01"/>
      <point x="601" y="236" type="line"/>
      <point x="601" y="175" type="line" name="dh02"/>
    </contour>
  </outline>
</glyph>
